 <svg width="293" height="75" viewBox="0 0 293 75" fill="none" xmlns="http://www.w3.org/2000/svg">
                <path d="M292.999 0V74.9999L284.053 66.8999V8.20999L292.999 0Z" fill="#BC1B1B" />
                <path d="M293 74.9999L0 71.5699L8.94656 63.6699L284.053 66.8999L293 74.9999Z" fill="#DA291C" />
                <path d="M293 0L284.053 8.20999L8.94656 14.66L0 6.86999L293 0Z" fill="#DA291C" />
                <path d="M8.94656 14.6601V63.67L0 71.57V6.87012L8.94656 14.6601Z" fill="#BC1B1B" />
                <path d="M284.054 8V67.6928L8.94727 64.4628V14.45L284.054 8Z" fill="#F83628" />
                <path d="M33.2461 27.7773L32.4805 33.5469C32.2161 33.474 31.9518 33.4238 31.6875 33.3965C31.4232 33.3691 31.1589 33.3555 30.8945 33.3555C30.2201 33.3555 29.5775 33.4466 28.9668 33.6289C28.3561 33.8021 27.8138 34.071 27.3398 34.4355C26.875 34.8001 26.5013 35.2559 26.2188 35.8027C25.9453 36.3496 25.8086 36.9922 25.8086 37.7305C25.8086 38.2044 25.8815 38.6146 26.0273 38.9609C26.1823 39.3073 26.3965 39.5944 26.6699 39.8223C26.9434 40.0501 27.2669 40.2188 27.6406 40.3281C28.0143 40.4375 28.4245 40.4922 28.8711 40.4922C29.2083 40.4922 29.5592 40.4557 29.9238 40.3828C30.2884 40.3099 30.6484 40.2142 31.0039 40.0957C31.3594 39.9772 31.7057 39.8405 32.043 39.6855C32.3802 39.5306 32.6901 39.3711 32.9727 39.207L32.4258 45.6328C32.0703 45.8151 31.6829 45.9792 31.2637 46.125C30.8535 46.2617 30.4297 46.3848 29.9922 46.4941C29.5547 46.5944 29.1172 46.6719 28.6797 46.7266C28.2422 46.7812 27.8229 46.8086 27.4219 46.8086C26.2643 46.8086 25.1842 46.5944 24.1816 46.166C23.179 45.7376 22.3086 45.1497 21.5703 44.4023C20.832 43.6549 20.2487 42.7754 19.8203 41.7637C19.401 40.7428 19.1914 39.6445 19.1914 38.4688C19.1914 36.9102 19.4147 35.4427 19.8613 34.0664C20.3079 32.681 20.9642 31.4688 21.8301 30.4297C22.696 29.3906 23.7669 28.5703 25.043 27.9688C26.3281 27.3672 27.8047 27.0664 29.4727 27.0664C30.1016 27.0664 30.7441 27.1165 31.4004 27.2168C32.0658 27.3171 32.681 27.5039 33.2461 27.7773ZM50.1309 33.8203C50.1309 34.5312 50.0671 35.1784 49.9395 35.7617C49.821 36.3359 49.6296 36.8646 49.3652 37.3477C49.1009 37.8307 48.7591 38.2773 48.3398 38.6875C47.9206 39.0977 47.4147 39.4896 46.8223 39.8633L50.0762 45.6602L43.9238 46.8633L41.8184 41.0391L40.123 41.0938L39.877 46.7812H33.998C34.0436 44.7031 34.0846 42.6341 34.1211 40.5742C34.1667 38.5143 34.2168 36.4453 34.2715 34.3672C34.2897 33.319 34.3079 32.2799 34.3262 31.25C34.3444 30.2201 34.3809 29.181 34.4355 28.1328C35.0736 27.8958 35.7025 27.6999 36.3223 27.5449C36.9421 27.39 37.5618 27.2715 38.1816 27.1895C38.8105 27.0983 39.444 27.0391 40.082 27.0117C40.7292 26.9753 41.39 26.957 42.0645 26.957C43.1035 26.957 44.1061 27.1029 45.0723 27.3945C46.0475 27.6771 46.9089 28.1055 47.6562 28.6797C48.4036 29.2539 49.0007 29.9694 49.4473 30.8262C49.903 31.6829 50.1309 32.681 50.1309 33.8203ZM44.0059 34.2578C44.0059 33.875 43.9512 33.5241 43.8418 33.2051C43.7415 32.8861 43.5866 32.6126 43.377 32.3848C43.1764 32.1478 42.9212 31.9655 42.6113 31.8379C42.3105 31.7012 41.9551 31.6328 41.5449 31.6328C41.3626 31.6328 41.1849 31.6465 41.0117 31.6738C40.8385 31.6921 40.6699 31.724 40.5059 31.7695L40.2871 36.8555H40.6152C41.0072 36.8555 41.4036 36.8053 41.8047 36.7051C42.2148 36.6048 42.5794 36.4499 42.8984 36.2402C43.2266 36.0306 43.4909 35.7617 43.6914 35.4336C43.901 35.1055 44.0059 34.7135 44.0059 34.2578ZM66.209 35.9531C66.209 36.7461 66.1543 37.5391 66.0449 38.332C64.4863 38.4323 62.9368 38.5964 61.3965 38.8242C59.8561 39.043 58.3158 39.2617 56.7754 39.4805C57.0124 40.1367 57.3815 40.6608 57.8828 41.0527C58.3932 41.4447 58.9993 41.6406 59.7012 41.6406C60.0658 41.6406 60.4622 41.5723 60.8906 41.4355C61.3281 41.2988 61.7611 41.1302 62.1895 40.9297C62.6178 40.7201 63.028 40.4967 63.4199 40.2598C63.8118 40.0228 64.1491 39.8086 64.4316 39.6172L63.7754 45.8242C63.4199 46.0977 63.0326 46.3301 62.6133 46.5215C62.2031 46.7129 61.7747 46.8678 61.3281 46.9863C60.8815 47.1048 60.4303 47.1914 59.9746 47.2461C59.5189 47.3008 59.0723 47.3281 58.6348 47.3281C57.7324 47.3281 56.9076 47.2051 56.1602 46.959C55.4128 46.7129 54.7337 46.3711 54.123 45.9336C53.5215 45.487 52.9928 44.9629 52.5371 44.3613C52.0814 43.7598 51.7031 43.1035 51.4023 42.3926C51.1016 41.6816 50.8737 40.9297 50.7188 40.1367C50.5638 39.3438 50.4863 38.5417 50.4863 37.7305C50.4863 36.8828 50.5638 36.0352 50.7188 35.1875C50.8737 34.3398 51.1061 33.5241 51.416 32.7402C51.735 31.9564 52.1315 31.2318 52.6055 30.5664C53.0885 29.8919 53.6491 29.304 54.2871 28.8027C54.9251 28.3014 55.6452 27.9095 56.4473 27.627C57.2585 27.3444 58.1517 27.2031 59.127 27.2031C59.9382 27.2031 60.6764 27.3171 61.3418 27.5449C62.0163 27.7637 62.6133 28.0736 63.1328 28.4746C63.6615 28.8665 64.1172 29.3359 64.5 29.8828C64.8919 30.4297 65.2109 31.0312 65.457 31.6875C65.7122 32.3346 65.8991 33.0228 66.0176 33.752C66.1452 34.472 66.209 35.2057 66.209 35.9531ZM60.7402 35.2422C60.7402 34.987 60.7129 34.7272 60.6582 34.4629C60.6035 34.1895 60.5124 33.9434 60.3848 33.7246C60.2663 33.5059 60.1068 33.3281 59.9062 33.1914C59.7057 33.0456 59.4551 32.9727 59.1543 32.9727C58.7897 32.9727 58.4661 33.0729 58.1836 33.2734C57.9102 33.4648 57.6732 33.7109 57.4727 34.0117C57.2721 34.3034 57.1081 34.6224 56.9805 34.9688C56.8529 35.3151 56.7572 35.6341 56.6934 35.9258L60.7402 35.543V35.2422ZM83.5859 45.8242L76.8047 46.6992L75.9844 43.6094H72.8672L72.1836 46.6992L65.2109 46.0156L70.6523 27.8047L78.2539 27.4219L83.5859 45.8242ZM75.4922 39.4258L74.4531 34.668L73.4414 39.4258H75.4922ZM96.6562 27.7227L96.5195 33.5195L92.4453 33.6836L91.9531 46.3711L86.1836 46.6719L85.6641 33.9844L81.5898 34.2031L81.7539 27.75L96.6562 27.7227ZM112.42 35.9531C112.42 36.7461 112.365 37.5391 112.256 38.332C110.697 38.4323 109.148 38.5964 107.607 38.8242C106.067 39.043 104.527 39.2617 102.986 39.4805C103.223 40.1367 103.592 40.6608 104.094 41.0527C104.604 41.4447 105.21 41.6406 105.912 41.6406C106.277 41.6406 106.673 41.5723 107.102 41.4355C107.539 41.2988 107.972 41.1302 108.4 40.9297C108.829 40.7201 109.239 40.4967 109.631 40.2598C110.023 40.0228 110.36 39.8086 110.643 39.6172L109.986 45.8242C109.631 46.0977 109.243 46.3301 108.824 46.5215C108.414 46.7129 107.986 46.8678 107.539 46.9863C107.092 47.1048 106.641 47.1914 106.186 47.2461C105.73 47.3008 105.283 47.3281 104.846 47.3281C103.943 47.3281 103.118 47.2051 102.371 46.959C101.624 46.7129 100.945 46.3711 100.334 45.9336C99.7324 45.487 99.2038 44.9629 98.748 44.3613C98.2923 43.7598 97.9141 43.1035 97.6133 42.3926C97.3125 41.6816 97.0846 40.9297 96.9297 40.1367C96.7747 39.3438 96.6973 38.5417 96.6973 37.7305C96.6973 36.8828 96.7747 36.0352 96.9297 35.1875C97.0846 34.3398 97.3171 33.5241 97.627 32.7402C97.946 31.9564 98.3424 31.2318 98.8164 30.5664C99.2995 29.8919 99.86 29.304 100.498 28.8027C101.136 28.3014 101.856 27.9095 102.658 27.627C103.469 27.3444 104.363 27.2031 105.338 27.2031C106.149 27.2031 106.887 27.3171 107.553 27.5449C108.227 27.7637 108.824 28.0736 109.344 28.4746C109.872 28.8665 110.328 29.3359 110.711 29.8828C111.103 30.4297 111.422 31.0312 111.668 31.6875C111.923 32.3346 112.11 33.0228 112.229 33.752C112.356 34.472 112.42 35.2057 112.42 35.9531ZM106.951 35.2422C106.951 34.987 106.924 34.7272 106.869 34.4629C106.814 34.1895 106.723 33.9434 106.596 33.7246C106.477 33.5059 106.318 33.3281 106.117 33.1914C105.917 33.0456 105.666 32.9727 105.365 32.9727C105.001 32.9727 104.677 33.0729 104.395 33.2734C104.121 33.4648 103.884 33.7109 103.684 34.0117C103.483 34.3034 103.319 34.6224 103.191 34.9688C103.064 35.3151 102.968 35.6341 102.904 35.9258L106.951 35.543V35.2422ZM135.648 28.4883L129.223 38.9883L129.414 46.7266H122.387L122.551 39.043L117.547 28.8984L124.52 28.0234L126.707 33.9297L129.086 28.0234L135.648 28.4883ZM151.139 36.5273C151.139 37.3568 151.043 38.1589 150.852 38.9336C150.66 39.6992 150.382 40.4193 150.018 41.0938C149.662 41.7682 149.225 42.388 148.705 42.9531C148.195 43.5091 147.616 43.9876 146.969 44.3887C146.331 44.7897 145.633 45.1042 144.877 45.332C144.12 45.5508 143.318 45.6602 142.471 45.6602C141.65 45.6602 140.867 45.5553 140.119 45.3457C139.381 45.1361 138.688 44.8444 138.041 44.4707C137.394 44.0879 136.806 43.6322 136.277 43.1035C135.758 42.5658 135.311 41.9733 134.938 41.3262C134.573 40.6699 134.286 39.9681 134.076 39.2207C133.876 38.4733 133.775 37.694 133.775 36.8828C133.775 36.0898 133.871 35.3151 134.062 34.5586C134.254 33.793 134.527 33.0729 134.883 32.3984C135.247 31.724 135.685 31.1042 136.195 30.5391C136.706 29.974 137.275 29.4863 137.904 29.0762C138.542 28.666 139.23 28.347 139.969 28.1191C140.707 27.8913 141.486 27.7773 142.307 27.7773C143.628 27.7773 144.831 27.9824 145.916 28.3926C147.01 28.8027 147.939 29.3906 148.705 30.1562C149.48 30.9128 150.077 31.8333 150.496 32.918C150.924 33.9935 151.139 35.1966 151.139 36.5273ZM145.068 36.8828C145.068 36.4909 145.009 36.1126 144.891 35.748C144.781 35.3743 144.617 35.0462 144.398 34.7637C144.18 34.472 143.906 34.2396 143.578 34.0664C143.259 33.8841 142.89 33.793 142.471 33.793C142.042 33.793 141.66 33.8704 141.322 34.0254C140.985 34.1803 140.693 34.3945 140.447 34.668C140.21 34.9323 140.028 35.2467 139.9 35.6113C139.773 35.9668 139.709 36.3451 139.709 36.7461C139.709 37.1289 139.764 37.5117 139.873 37.8945C139.982 38.2773 140.146 38.6237 140.365 38.9336C140.584 39.2435 140.853 39.4941 141.172 39.6855C141.5 39.877 141.878 39.9727 142.307 39.9727C142.735 39.9727 143.118 39.8906 143.455 39.7266C143.801 39.5534 144.093 39.3255 144.33 39.043C144.567 38.7513 144.749 38.4186 144.877 38.0449C145.005 37.6712 145.068 37.2839 145.068 36.8828ZM168.393 27.75C167.982 30.9583 167.632 34.153 167.34 37.334C167.048 40.5059 166.77 43.7005 166.506 46.918L160.9 47.3281L161.146 45.2227C160.964 45.4323 160.75 45.6146 160.504 45.7695C160.267 45.9245 160.012 46.0521 159.738 46.1523C159.465 46.2435 159.182 46.3118 158.891 46.3574C158.599 46.3939 158.321 46.4076 158.057 46.3984C157.437 46.3893 156.854 46.2708 156.307 46.043C155.76 45.806 155.258 45.4961 154.803 45.1133C154.347 44.7214 153.937 44.2702 153.572 43.7598C153.208 43.2402 152.898 42.6979 152.643 42.1328C152.396 41.5586 152.205 40.9753 152.068 40.3828C151.941 39.7904 151.877 39.2161 151.877 38.6602C151.877 37.8398 151.891 36.9922 151.918 36.1172C151.954 35.2331 152.014 34.349 152.096 33.4648C152.178 32.5807 152.283 31.7057 152.41 30.8398C152.547 29.974 152.715 29.1445 152.916 28.3516C154.028 28.4062 155.145 28.4564 156.266 28.502C157.387 28.5475 158.503 28.5612 159.615 28.543C159.406 29.3359 159.196 30.1335 158.986 30.9355C158.786 31.7285 158.604 32.5306 158.439 33.3418C158.275 34.1439 158.143 34.9505 158.043 35.7617C157.943 36.5729 157.893 37.3932 157.893 38.2227C157.893 38.4141 157.902 38.6875 157.92 39.043C157.938 39.3984 157.984 39.7493 158.057 40.0957C158.139 40.4421 158.257 40.7474 158.412 41.0117C158.576 41.2669 158.804 41.3945 159.096 41.3945C159.442 41.3945 159.752 41.2487 160.025 40.957C160.299 40.6562 160.54 40.2552 160.75 39.7539C160.96 39.2526 161.137 38.6738 161.283 38.0176C161.438 37.3613 161.566 36.6777 161.666 35.9668C161.775 35.2467 161.862 34.5221 161.926 33.793C161.99 33.0638 162.035 32.3802 162.062 31.7422C162.099 31.0951 162.122 30.5163 162.131 30.0059C162.149 29.4954 162.158 29.099 162.158 28.8164C162.158 28.6341 162.154 28.4564 162.145 28.2832C162.135 28.11 162.122 27.9323 162.104 27.75C162.696 27.7682 163.284 27.7819 163.867 27.791C164.451 27.8001 165.038 27.8047 165.631 27.8047C166.087 27.8047 166.542 27.8047 166.998 27.8047C167.463 27.7956 167.928 27.7773 168.393 27.75ZM185.236 33.8203C185.236 34.5312 185.173 35.1784 185.045 35.7617C184.926 36.3359 184.735 36.8646 184.471 37.3477C184.206 37.8307 183.865 38.2773 183.445 38.6875C183.026 39.0977 182.52 39.4896 181.928 39.8633L185.182 45.6602L179.029 46.8633L176.924 41.0391L175.229 41.0938L174.982 46.7812H169.104C169.149 44.7031 169.19 42.6341 169.227 40.5742C169.272 38.5143 169.322 36.4453 169.377 34.3672C169.395 33.319 169.413 32.2799 169.432 31.25C169.45 30.2201 169.486 29.181 169.541 28.1328C170.179 27.8958 170.808 27.6999 171.428 27.5449C172.048 27.39 172.667 27.2715 173.287 27.1895C173.916 27.0983 174.549 27.0391 175.188 27.0117C175.835 26.9753 176.495 26.957 177.17 26.957C178.209 26.957 179.212 27.1029 180.178 27.3945C181.153 27.6771 182.014 28.1055 182.762 28.6797C183.509 29.2539 184.106 29.9694 184.553 30.8262C185.008 31.6829 185.236 32.681 185.236 33.8203ZM179.111 34.2578C179.111 33.875 179.057 33.5241 178.947 33.2051C178.847 32.8861 178.692 32.6126 178.482 32.3848C178.282 32.1478 178.027 31.9655 177.717 31.8379C177.416 31.7012 177.061 31.6328 176.65 31.6328C176.468 31.6328 176.29 31.6465 176.117 31.6738C175.944 31.6921 175.775 31.724 175.611 31.7695L175.393 36.8555H175.721C176.113 36.8555 176.509 36.8053 176.91 36.7051C177.32 36.6048 177.685 36.4499 178.004 36.2402C178.332 36.0306 178.596 35.7617 178.797 35.4336C179.007 35.1055 179.111 34.7135 179.111 34.2578ZM215.561 37.7305C215.561 39.0339 215.52 40.3327 215.438 41.627C215.355 42.9212 215.26 44.2201 215.15 45.5234L208.123 45.8516C208.333 44.2656 208.52 42.6797 208.684 41.0938C208.857 39.4987 208.943 37.9036 208.943 36.3086C208.943 36.2083 208.939 36.0352 208.93 35.7891C208.921 35.5339 208.902 35.2467 208.875 34.9277C208.857 34.6087 208.825 34.2806 208.779 33.9434C208.743 33.597 208.688 33.2826 208.615 33C208.551 32.7083 208.469 32.4714 208.369 32.2891C208.269 32.1068 208.15 32.0156 208.014 32.0156C207.695 32.0156 207.444 32.1387 207.262 32.3848C207.079 32.6217 206.943 32.9089 206.852 33.2461C206.77 33.5833 206.719 33.9297 206.701 34.2852C206.683 34.6315 206.674 34.9141 206.674 35.1328C206.674 35.5156 206.683 35.8984 206.701 36.2812C206.719 36.6641 206.729 37.056 206.729 37.457C206.729 38.8698 206.692 40.278 206.619 41.6816C206.555 43.0853 206.473 44.4935 206.373 45.9062L199.893 46.1523C200.102 44.5664 200.285 42.985 200.439 41.4082C200.604 39.8223 200.686 38.2318 200.686 36.6367C200.686 36.5365 200.681 36.3542 200.672 36.0898C200.663 35.8255 200.645 35.5293 200.617 35.2012C200.599 34.873 200.567 34.5312 200.521 34.1758C200.476 33.8203 200.417 33.4967 200.344 33.2051C200.28 32.9043 200.198 32.6582 200.098 32.4668C199.997 32.2754 199.874 32.1797 199.729 32.1797C199.501 32.1797 199.309 32.2708 199.154 32.4531C198.999 32.6263 198.872 32.8542 198.771 33.1367C198.68 33.4193 198.607 33.7337 198.553 34.0801C198.507 34.4173 198.471 34.75 198.443 35.0781C198.425 35.4062 198.411 35.7116 198.402 35.9941C198.402 36.2676 198.398 36.4727 198.389 36.6094L198.088 46.5898H191.197C191.343 45.0495 191.489 43.5046 191.635 41.9551C191.79 40.4056 191.922 38.8607 192.031 37.3203C192.15 35.7708 192.245 34.2214 192.318 32.6719C192.391 31.1224 192.428 29.5729 192.428 28.0234L198.936 27.75L198.908 29.3359C199.109 29.0807 199.337 28.8255 199.592 28.5703C199.847 28.306 200.116 28.0736 200.398 27.873C200.69 27.6634 200.995 27.4948 201.314 27.3672C201.643 27.2396 201.98 27.1758 202.326 27.1758C202.773 27.1758 203.174 27.2122 203.529 27.2852C203.885 27.349 204.204 27.4629 204.486 27.627C204.778 27.791 205.033 28.0189 205.252 28.3105C205.471 28.5931 205.662 28.9531 205.826 29.3906C206.118 29.0716 206.41 28.7754 206.701 28.502C207.002 28.2285 207.316 27.9961 207.645 27.8047C207.973 27.6042 208.328 27.4492 208.711 27.3398C209.094 27.2305 209.518 27.1758 209.982 27.1758C210.867 27.1758 211.618 27.349 212.238 27.6953C212.858 28.0326 213.373 28.4837 213.783 29.0488C214.202 29.6139 214.526 30.2611 214.754 30.9902C214.991 31.7194 215.169 32.4759 215.287 33.2598C215.406 34.0436 215.479 34.8229 215.506 35.5977C215.542 36.3724 215.561 37.0833 215.561 37.7305ZM232.076 35.9531C232.076 36.7461 232.021 37.5391 231.912 38.332C230.354 38.4323 228.804 38.5964 227.264 38.8242C225.723 39.043 224.183 39.2617 222.643 39.4805C222.88 40.1367 223.249 40.6608 223.75 41.0527C224.26 41.4447 224.867 41.6406 225.568 41.6406C225.933 41.6406 226.329 41.5723 226.758 41.4355C227.195 41.2988 227.628 41.1302 228.057 40.9297C228.485 40.7201 228.895 40.4967 229.287 40.2598C229.679 40.0228 230.016 39.8086 230.299 39.6172L229.643 45.8242C229.287 46.0977 228.9 46.3301 228.48 46.5215C228.07 46.7129 227.642 46.8678 227.195 46.9863C226.749 47.1048 226.298 47.1914 225.842 47.2461C225.386 47.3008 224.939 47.3281 224.502 47.3281C223.6 47.3281 222.775 47.2051 222.027 46.959C221.28 46.7129 220.601 46.3711 219.99 45.9336C219.389 45.487 218.86 44.9629 218.404 44.3613C217.949 43.7598 217.57 43.1035 217.27 42.3926C216.969 41.6816 216.741 40.9297 216.586 40.1367C216.431 39.3438 216.354 38.5417 216.354 37.7305C216.354 36.8828 216.431 36.0352 216.586 35.1875C216.741 34.3398 216.973 33.5241 217.283 32.7402C217.602 31.9564 217.999 31.2318 218.473 30.5664C218.956 29.8919 219.516 29.304 220.154 28.8027C220.792 28.3014 221.512 27.9095 222.314 27.627C223.126 27.3444 224.019 27.2031 224.994 27.2031C225.805 27.2031 226.544 27.3171 227.209 27.5449C227.883 27.7637 228.48 28.0736 229 28.4746C229.529 28.8665 229.984 29.3359 230.367 29.8828C230.759 30.4297 231.078 31.0312 231.324 31.6875C231.579 32.3346 231.766 33.0228 231.885 33.752C232.012 34.472 232.076 35.2057 232.076 35.9531ZM226.607 35.2422C226.607 34.987 226.58 34.7272 226.525 34.4629C226.471 34.1895 226.38 33.9434 226.252 33.7246C226.133 33.5059 225.974 33.3281 225.773 33.1914C225.573 33.0456 225.322 32.9727 225.021 32.9727C224.657 32.9727 224.333 33.0729 224.051 33.2734C223.777 33.4648 223.54 33.7109 223.34 34.0117C223.139 34.3034 222.975 34.6224 222.848 34.9688C222.72 35.3151 222.624 35.6341 222.561 35.9258L226.607 35.543V35.2422ZM256.686 37.7305C256.686 39.0339 256.645 40.3327 256.562 41.627C256.48 42.9212 256.385 44.2201 256.275 45.5234L249.248 45.8516C249.458 44.2656 249.645 42.6797 249.809 41.0938C249.982 39.4987 250.068 37.9036 250.068 36.3086C250.068 36.2083 250.064 36.0352 250.055 35.7891C250.046 35.5339 250.027 35.2467 250 34.9277C249.982 34.6087 249.95 34.2806 249.904 33.9434C249.868 33.597 249.813 33.2826 249.74 33C249.676 32.7083 249.594 32.4714 249.494 32.2891C249.394 32.1068 249.275 32.0156 249.139 32.0156C248.82 32.0156 248.569 32.1387 248.387 32.3848C248.204 32.6217 248.068 32.9089 247.977 33.2461C247.895 33.5833 247.844 33.9297 247.826 34.2852C247.808 34.6315 247.799 34.9141 247.799 35.1328C247.799 35.5156 247.808 35.8984 247.826 36.2812C247.844 36.6641 247.854 37.056 247.854 37.457C247.854 38.8698 247.817 40.278 247.744 41.6816C247.68 43.0853 247.598 44.4935 247.498 45.9062L241.018 46.1523C241.227 44.5664 241.41 42.985 241.564 41.4082C241.729 39.8223 241.811 38.2318 241.811 36.6367C241.811 36.5365 241.806 36.3542 241.797 36.0898C241.788 35.8255 241.77 35.5293 241.742 35.2012C241.724 34.873 241.692 34.5312 241.646 34.1758C241.601 33.8203 241.542 33.4967 241.469 33.2051C241.405 32.9043 241.323 32.6582 241.223 32.4668C241.122 32.2754 240.999 32.1797 240.854 32.1797C240.626 32.1797 240.434 32.2708 240.279 32.4531C240.124 32.6263 239.997 32.8542 239.896 33.1367C239.805 33.4193 239.732 33.7337 239.678 34.0801C239.632 34.4173 239.596 34.75 239.568 35.0781C239.55 35.4062 239.536 35.7116 239.527 35.9941C239.527 36.2676 239.523 36.4727 239.514 36.6094L239.213 46.5898H232.322C232.468 45.0495 232.614 43.5046 232.76 41.9551C232.915 40.4056 233.047 38.8607 233.156 37.3203C233.275 35.7708 233.37 34.2214 233.443 32.6719C233.516 31.1224 233.553 29.5729 233.553 28.0234L240.061 27.75L240.033 29.3359C240.234 29.0807 240.462 28.8255 240.717 28.5703C240.972 28.306 241.241 28.0736 241.523 27.873C241.815 27.6634 242.12 27.4948 242.439 27.3672C242.768 27.2396 243.105 27.1758 243.451 27.1758C243.898 27.1758 244.299 27.2122 244.654 27.2852C245.01 27.349 245.329 27.4629 245.611 27.627C245.903 27.791 246.158 28.0189 246.377 28.3105C246.596 28.5931 246.787 28.9531 246.951 29.3906C247.243 29.0716 247.535 28.7754 247.826 28.502C248.127 28.2285 248.441 27.9961 248.77 27.8047C249.098 27.6042 249.453 27.4492 249.836 27.3398C250.219 27.2305 250.643 27.1758 251.107 27.1758C251.992 27.1758 252.743 27.349 253.363 27.6953C253.983 28.0326 254.498 28.4837 254.908 29.0488C255.327 29.6139 255.651 30.2611 255.879 30.9902C256.116 31.7194 256.294 32.4759 256.412 33.2598C256.531 34.0436 256.604 34.8229 256.631 35.5977C256.667 36.3724 256.686 37.0833 256.686 37.7305ZM273.201 35.9531C273.201 36.7461 273.146 37.5391 273.037 38.332C271.479 38.4323 269.929 38.5964 268.389 38.8242C266.848 39.043 265.308 39.2617 263.768 39.4805C264.005 40.1367 264.374 40.6608 264.875 41.0527C265.385 41.4447 265.992 41.6406 266.693 41.6406C267.058 41.6406 267.454 41.5723 267.883 41.4355C268.32 41.2988 268.753 41.1302 269.182 40.9297C269.61 40.7201 270.02 40.4967 270.412 40.2598C270.804 40.0228 271.141 39.8086 271.424 39.6172L270.768 45.8242C270.412 46.0977 270.025 46.3301 269.605 46.5215C269.195 46.7129 268.767 46.8678 268.32 46.9863C267.874 47.1048 267.423 47.1914 266.967 47.2461C266.511 47.3008 266.064 47.3281 265.627 47.3281C264.725 47.3281 263.9 47.2051 263.152 46.959C262.405 46.7129 261.726 46.3711 261.115 45.9336C260.514 45.487 259.985 44.9629 259.529 44.3613C259.074 43.7598 258.695 43.1035 258.395 42.3926C258.094 41.6816 257.866 40.9297 257.711 40.1367C257.556 39.3438 257.479 38.5417 257.479 37.7305C257.479 36.8828 257.556 36.0352 257.711 35.1875C257.866 34.3398 258.098 33.5241 258.408 32.7402C258.727 31.9564 259.124 31.2318 259.598 30.5664C260.081 29.8919 260.641 29.304 261.279 28.8027C261.917 28.3014 262.637 27.9095 263.439 27.627C264.251 27.3444 265.144 27.2031 266.119 27.2031C266.93 27.2031 267.669 27.3171 268.334 27.5449C269.008 27.7637 269.605 28.0736 270.125 28.4746C270.654 28.8665 271.109 29.3359 271.492 29.8828C271.884 30.4297 272.203 31.0312 272.449 31.6875C272.704 32.3346 272.891 33.0228 273.01 33.752C273.137 34.472 273.201 35.2057 273.201 35.9531ZM267.732 35.2422C267.732 34.987 267.705 34.7272 267.65 34.4629C267.596 34.1895 267.505 33.9434 267.377 33.7246C267.258 33.5059 267.099 33.3281 266.898 33.1914C266.698 33.0456 266.447 32.9727 266.146 32.9727C265.782 32.9727 265.458 33.0729 265.176 33.2734C264.902 33.4648 264.665 33.7109 264.465 34.0117C264.264 34.3034 264.1 34.6224 263.973 34.9688C263.845 35.3151 263.749 35.6341 263.686 35.9258L267.732 35.543V35.2422Z" fill="white" />
            </svg>