<svg width="77" height="67" viewBox="0 0 77 67" fill="none" xmlns="http://www.w3.org/2000/svg">
<g clip-path="url(#clip0_371_2614)">
<path d="M77 16L75 30V56L70 62L57 65C56.6414 64.6158 56.5169 64.0993 56 64C55.5154 63.9324 54.756 65.2559 54 66L37 64L26 62L1 67L0 45L5 5L11 7H25L37 5L42 7L48 4L63 0L68 4H76L77 5V16Z" fill="white"/>
<path d="M49 23.9999C47.2267 23.1864 45.0001 22.3411 43 21.9999C42.9649 22.0004 43.0247 21.9752 43 21.9999C42.76 22.433 42.1867 22.5669 42 22.9999C39.8786 22.6852 38.1214 22.6852 36 22.9999C35.8134 22.5538 35.2534 22.433 35 21.9999C34.9867 21.9737 35.04 21.9999 35 21.9999C33 22.3411 30.7867 23.1864 29 23.9999C28.9867 23.9999 29.0134 23.9868 29 23.9999C25.3733 29.3404 24.5067 33.8563 25 38.9999C25 39.0262 24.9734 39.9868 25 39.9999C27.4001 41.732 29.72 42.3045 32 42.9999C31.9867 43.0262 32.04 43.0131 32 42.9999C32.5334 42.2783 33.5867 41.8004 34 40.9999C34.0267 40.9475 34.0534 41.0131 34 40.9999C33.24 40.7113 31.7067 40.3936 31 39.9999C30.9467 39.9737 30.96 39.0393 31 38.9999C31.1467 38.895 31.8534 39.1049 32 38.9999C31.9734 38.9868 32.0267 38.9737 32 38.9999C36.5868 41.06 41.4666 41.06 46 38.9999C45.9734 38.9737 46.0267 38.9868 46 38.9999C46.1467 39.118 46.8534 38.8819 47 38.9999C47.0534 39.0393 47.0667 39.9737 47 39.9999C46.3067 40.4067 44.7601 40.7113 44 40.9999C43.9467 41.0131 43.9867 40.9606 44 40.9999C44.4267 41.8004 45.48 42.2783 46 42.9999C45.96 43.0131 46.04 43.0131 46 42.9999C48.2934 42.3045 50.6 41.732 53 39.9999C53.0267 39.9868 53 39.0262 53 38.9999C53.5867 33.0559 52.1601 28.5794 49 23.9999C49.0267 23.9999 48.9867 23.9868 49 23.9999ZM34 35.9999C32.6267 35.9999 32 35.5352 32 33.9999C32 32.4647 32.6 30.9999 34 30.9999C35.4134 30.9999 37.0134 32.4778 37 33.9999C37 35.5352 35.4001 35.9999 34 35.9999ZM44 35.9999C42.6267 35.9999 41 35.5352 41 33.9999C41 32.4647 42.6 30.9999 44 30.9999C45.4134 30.9999 46.0134 32.4778 46 33.9999C46 35.5352 45.4134 35.9999 44 35.9999Z" fill="black"/>
</g>
<defs>
<clipPath id="clip0_371_2614">
<rect width="77" height="67" fill="white"/>
</clipPath>
</defs>
</svg>
