<svg width="100" height="88" viewBox="0 0 100 88" fill="none" xmlns="http://www.w3.org/2000/svg">
<path d="M2.00512 59.1456L7.70429 9.70387L13.3245 10.8408L13.51 10.8783L13.6993 10.8803L32.1535 11.0811L32.3402 11.0832L32.5241 11.0506L48.2023 8.27342L53.2788 11.0165L54.0691 11.4435L54.9132 11.1365L63.3892 8.05373L81.2131 2.54564L87.6619 7.69517L88.2368 8.15428L88.9722 8.13134L97.9393 7.85163L97.4512 20.5677L94.9461 39.2968L94.9282 39.4307L94.9285 39.5658L94.9902 72.0244L90.2722 78.6068L74.5779 82.7335C74.0193 82.3738 73.3938 82.1219 72.7337 81.9951L72.6835 81.9855L72.6329 81.9784C71.6568 81.8422 70.81 82.2162 70.241 82.5565C69.8953 82.7633 69.5564 83.0156 69.2278 83.2939L48.349 81.096L34.1772 79.0189L33.8406 78.9695L33.5066 79.0343L3.15364 84.9178L2.00512 59.1456Z" fill="white" stroke="black" stroke-width="4"/>
<path d="M63.2381 34.2269C60.9351 33.1533 58.4415 32.374 55.8441 31.9238C55.7985 31.9245 55.7549 31.9432 55.7229 31.9758C55.4112 32.5472 55.0476 33.2918 54.8052 33.8632C52.0502 33.4479 49.2485 33.4479 46.4935 33.8632C46.2511 33.2745 45.8874 32.5472 45.5584 31.9758C45.5411 31.9411 45.4892 31.9238 45.4372 31.9238C42.8398 32.374 40.3636 33.1533 38.0433 34.2269C38.026 34.2269 38.0086 34.2442 37.9913 34.2615C33.2814 41.3091 31.9827 48.1663 32.6234 54.9541C32.6234 54.9888 32.6407 55.0234 32.6753 55.0407C35.7922 57.3264 38.7879 58.7117 41.7489 59.6295C41.8009 59.6468 41.8528 59.6295 41.8701 59.5948C42.5628 58.6424 43.1861 57.6381 43.7229 56.5818C43.7576 56.5126 43.7229 56.4433 43.6537 56.426C42.6667 56.045 41.7316 55.5948 40.8138 55.0753C40.7446 55.0407 40.7446 54.9368 40.7965 54.8849C40.987 54.7463 41.1775 54.5905 41.368 54.452C41.4026 54.4173 41.4545 54.4173 41.4892 54.4347C47.4459 57.1533 53.8701 57.1533 59.7576 54.4347C59.7922 54.4173 59.8441 54.4173 59.8788 54.452C60.0693 54.6078 60.2597 54.7463 60.4502 54.9022C60.5195 54.9541 60.5195 55.058 60.4329 55.0927C59.5325 55.6295 58.5801 56.0624 57.5931 56.4433C57.5238 56.4606 57.5065 56.5472 57.5238 56.5992C58.0779 57.6554 58.7013 58.6598 59.3766 59.6121C59.4286 59.6295 59.4805 59.6468 59.5325 59.6295C62.5108 58.7117 65.5065 57.3264 68.6234 55.0407C68.658 55.0234 68.6753 54.9888 68.6753 54.9541C69.4372 47.11 67.4112 40.3048 63.3073 34.2615C63.29 34.2442 63.2727 34.2269 63.2381 34.2269ZM44.6234 50.8156C42.8398 50.8156 41.3506 49.1706 41.3506 47.1446C41.3506 45.1186 42.8052 43.4736 44.6234 43.4736C46.4589 43.4736 47.9134 45.1359 47.8961 47.1446C47.8961 49.1706 46.4416 50.8156 44.6234 50.8156ZM56.6926 50.8156C54.9091 50.8156 53.4199 49.1706 53.4199 47.1446C53.4199 45.1186 54.8744 43.4736 56.6926 43.4736C58.5281 43.4736 59.9827 45.1359 59.9654 47.1446C59.9654 49.1706 58.5281 50.8156 56.6926 50.8156Z" fill="black"/>
</svg>
