<svg width="16" height="17" viewBox="0 0 16 17" fill="none" xmlns="http://www.w3.org/2000/svg">
<path d="M14 3.50004L3.00003 3.50004C2.88157 3.50042 2.1013 3.4369 2.00003 3.50004C2.05505 3.39225 1.89875 3.56318 2.00003 3.50004C1.945 3.60782 1.99302 4.37854 2.00003 4.50004C2.00704 4.62154 1.93299 4.39969 2.00003 4.50004L8.00002 13.5C8.24248 13.86 8.75692 13.86 9.00002 13.5L15 4.50004C15.0677 4.3999 14.9926 4.62174 15 4.50004C15.0074 4.37834 15.0551 3.60805 15 3.50004C15.1016 3.56308 14.9449 3.39203 15 3.50004C14.8984 3.437 14.1187 3.49985 14 3.50004Z" fill="black"/>
</svg>
