 <svg width="335" height="75" viewBox="0 0 335 75" fill="none" xmlns="http://www.w3.org/2000/svg">
                <path d="M335 0V74.7847L324.771 66.7079V8.18643L335 0Z" fill="#BC1B1B" />
                <path d="M335 74.7845L0 71.3644L10.229 63.4871L324.771 66.7078L335 74.7845Z" fill="#DA291C" />
                <path d="M335 0L324.771 8.18643L10.229 14.6179L0 6.85028L335 0Z" fill="#DA291C" />
                <path d="M10.229 14.618V63.4873L0 71.3646V6.85034L10.229 14.618Z" fill="#BC1B1B" />
                <path d="M324.542 8V67.5215L10.0001 64.3008V14.4315L324.542 8Z" fill="#F83628" />
                <path d="M82 35.9999L88 37.9999L103 28.9999C103.222 28.8666 104.191 29.8269 104 29.9999L92 39.9999V45.9999C91.6756 46.3136 91.9673 46.4462 92 45.9999L96 42.9999L103 47.9999C103.702 48.5228 103.811 47.8459 104 46.9999L109 26.9999C109.259 25.8442 108.124 24.5767 107 24.9999L82 34.9999C81.2044 35.2995 81.1933 35.7305 82 35.9999Z" fill="white" />
                <path d="M137.695 28.6016C137.648 29.3359 137.605 30.0625 137.566 30.7812C137.527 31.5 137.477 32.2266 137.414 32.9609L132.445 33.2188L132.328 34.6953H135.82L135.562 38.3281L132.047 38.4453L131.93 40.1562H134.836H136.898C136.852 41.0156 136.801 41.8711 136.746 42.7227C136.699 43.5664 136.656 44.4141 136.617 45.2656L126.516 45.5L126.891 28.6016H137.695ZM152.883 44.4922L147.07 45.2422L146.367 42.5938H143.695L143.109 45.2422L137.133 44.6562L141.797 29.0469L148.312 28.7188L152.883 44.4922ZM145.945 39.0078L145.055 34.9297L144.188 39.0078H145.945ZM166.863 34.2031C166.863 34.8125 166.809 35.3672 166.699 35.8672C166.598 36.3594 166.434 36.8125 166.207 37.2266C165.98 37.6406 165.688 38.0234 165.328 38.375C164.969 38.7266 164.535 39.0625 164.027 39.3828L166.816 44.3516L161.543 45.3828L159.738 40.3906L158.285 40.4375L158.074 45.3125H153.035C153.074 43.5312 153.109 41.7578 153.141 39.9922C153.18 38.2266 153.223 36.4531 153.27 34.6719C153.285 33.7734 153.301 32.8828 153.316 32C153.332 31.1172 153.363 30.2266 153.41 29.3281C153.957 29.125 154.496 28.957 155.027 28.8242C155.559 28.6914 156.09 28.5898 156.621 28.5195C157.16 28.4414 157.703 28.3906 158.25 28.3672C158.805 28.3359 159.371 28.3203 159.949 28.3203C160.84 28.3203 161.699 28.4453 162.527 28.6953C163.363 28.9375 164.102 29.3047 164.742 29.7969C165.383 30.2891 165.895 30.9023 166.277 31.6367C166.668 32.3711 166.863 33.2266 166.863 34.2031ZM161.613 34.5781C161.613 34.25 161.566 33.9492 161.473 33.6758C161.387 33.4023 161.254 33.168 161.074 32.9727C160.902 32.7695 160.684 32.6133 160.418 32.5039C160.16 32.3867 159.855 32.3281 159.504 32.3281C159.348 32.3281 159.195 32.3398 159.047 32.3633C158.898 32.3789 158.754 32.4062 158.613 32.4453L158.426 36.8047H158.707C159.043 36.8047 159.383 36.7617 159.727 36.6758C160.078 36.5898 160.391 36.457 160.664 36.2773C160.945 36.0977 161.172 35.8672 161.344 35.5859C161.523 35.3047 161.613 34.9688 161.613 34.5781ZM183.621 28.6953L182.777 44.5859L176.637 45.1484L173.355 36.6406L172.84 45.3125H167.566L167.988 28.6953L173.848 28.4141L177.902 36.8516L178.09 28.8828L183.621 28.6953ZM205.207 28.6953L204.363 44.5859L198.223 45.1484L194.941 36.6406L194.426 45.3125H189.152L189.574 28.6953L195.434 28.4141L199.488 36.8516L199.676 28.8828L205.207 28.6953ZM220.488 37.2266C220.488 37.9375 220.406 38.625 220.242 39.2891C220.078 39.9453 219.84 40.5625 219.527 41.1406C219.223 41.7188 218.848 42.25 218.402 42.7344C217.965 43.2109 217.469 43.6211 216.914 43.9648C216.367 44.3086 215.77 44.5781 215.121 44.7734C214.473 44.9609 213.785 45.0547 213.059 45.0547C212.355 45.0547 211.684 44.9648 211.043 44.7852C210.41 44.6055 209.816 44.3555 209.262 44.0352C208.707 43.707 208.203 43.3164 207.75 42.8633C207.305 42.4023 206.922 41.8945 206.602 41.3398C206.289 40.7773 206.043 40.1758 205.863 39.5352C205.691 38.8945 205.605 38.2266 205.605 37.5312C205.605 36.8516 205.688 36.1875 205.852 35.5391C206.016 34.8828 206.25 34.2656 206.555 33.6875C206.867 33.1094 207.242 32.5781 207.68 32.0938C208.117 31.6094 208.605 31.1914 209.145 30.8398C209.691 30.4883 210.281 30.2148 210.914 30.0195C211.547 29.8242 212.215 29.7266 212.918 29.7266C214.051 29.7266 215.082 29.9023 216.012 30.2539C216.949 30.6055 217.746 31.1094 218.402 31.7656C219.066 32.4141 219.578 33.2031 219.938 34.1328C220.305 35.0547 220.488 36.0859 220.488 37.2266ZM215.285 37.5312C215.285 37.1953 215.234 36.8711 215.133 36.5586C215.039 36.2383 214.898 35.957 214.711 35.7148C214.523 35.4648 214.289 35.2656 214.008 35.1172C213.734 34.9609 213.418 34.8828 213.059 34.8828C212.691 34.8828 212.363 34.9492 212.074 35.082C211.785 35.2148 211.535 35.3984 211.324 35.6328C211.121 35.8594 210.965 36.1289 210.855 36.4414C210.746 36.7461 210.691 37.0703 210.691 37.4141C210.691 37.7422 210.738 38.0703 210.832 38.3984C210.926 38.7266 211.066 39.0234 211.254 39.2891C211.441 39.5547 211.672 39.7695 211.945 39.9336C212.227 40.0977 212.551 40.1797 212.918 40.1797C213.285 40.1797 213.613 40.1094 213.902 39.9688C214.199 39.8203 214.449 39.625 214.652 39.3828C214.855 39.1328 215.012 38.8477 215.121 38.5273C215.23 38.207 215.285 37.875 215.285 37.5312ZM242.027 29.2344L239.285 45.4766L232.629 45.6172L231.199 37.2031L229.77 45.0078L223.113 45.2422L220.348 29.2344L226.16 28.7188L227.332 38.4453L228.902 28.7188H233.473L235.301 38.5625L236.238 28.7188L242.027 29.2344Z" fill="white" />
            </svg>