 <svg width="313" height="98" viewBox="0 0 313 98" fill="none" xmlns="http://www.w3.org/2000/svg">
                <path d="M312.999 0V97.127L303.442 86.6372V10.6322L312.999 0Z" fill="#BC1B1B" />
                <path d="M313 97.127L0 92.685L9.55725 82.4543L303.443 86.6373L313 97.127Z" fill="#DA291C" />
                <path d="M313 0L303.443 10.6322L9.55725 18.9851L0 8.89683L313 0Z" fill="#DA291C" />
                <path d="M9.55725 18.9855V82.4547L0 92.6854V8.89722L9.55725 18.9855Z" fill="#BC1B1B" />
                <path d="M303.444 10.3601V87.6639L9.55804 83.481V18.713L303.444 10.3601Z" fill="#F83628" />
                <path d="M87.7209 35.4587C87.6499 36.5715 87.5848 37.6724 87.5256 38.7614C87.4664 39.8505 87.3895 40.9514 87.2948 42.0641L79.766 42.4548L79.5885 44.6921H84.8799L84.4892 50.1965L79.1623 50.3741L78.9847 52.9666H83.3883H86.5135C86.4424 54.2687 86.3655 55.5649 86.2826 56.8552C86.2116 58.1337 86.1465 59.418 86.0873 60.7083L70.7813 61.0635L71.3495 35.4587H87.7209ZM110.733 59.5364L101.926 60.6728L100.861 56.6599H96.8122L95.9244 60.6728L86.8686 59.785L93.9357 36.1335L103.808 35.6363L110.733 59.5364ZM100.221 51.2264L98.8719 45.0472L97.558 51.2264H100.221ZM131.917 43.9463C131.917 44.8696 131.834 45.7101 131.668 46.4677C131.514 47.2135 131.266 47.9001 130.922 48.5274C130.579 49.1548 130.135 49.7349 129.591 50.2676C129.046 50.8003 128.389 51.3093 127.62 51.7946L131.846 59.3233L123.855 60.8859L121.121 53.3217L118.919 53.3927L118.599 60.7794H110.964C111.023 58.0804 111.077 55.3933 111.124 52.718C111.183 50.0427 111.248 47.3555 111.319 44.6565C111.343 43.2952 111.367 41.9457 111.39 40.6081C111.414 39.2704 111.461 37.9209 111.532 36.5596C112.361 36.2518 113.178 35.9973 113.983 35.7961C114.788 35.5949 115.593 35.441 116.398 35.3344C117.214 35.2161 118.037 35.1391 118.866 35.1036C119.706 35.0562 120.564 35.0326 121.44 35.0326C122.79 35.0326 124.092 35.222 125.347 35.6008C126.613 35.9677 127.732 36.5241 128.703 37.2699C129.673 38.0156 130.449 38.9449 131.029 40.0576C131.621 41.1704 131.917 42.4666 131.917 43.9463ZM123.962 44.5145C123.962 44.0173 123.891 43.5616 123.749 43.1473C123.618 42.7329 123.417 42.3778 123.145 42.0819C122.885 41.7741 122.553 41.5373 122.151 41.3716C121.76 41.194 121.298 41.1053 120.766 41.1053C120.529 41.1053 120.298 41.123 120.073 41.1585C119.848 41.1822 119.629 41.2236 119.416 41.2828L119.132 47.8882H119.558C120.067 47.8882 120.582 47.8231 121.103 47.6929C121.636 47.5627 122.109 47.3614 122.523 47.0892C122.95 46.8169 123.293 46.4677 123.553 46.0415C123.826 45.6154 123.962 45.1064 123.962 44.5145ZM155.195 52.0787C155.195 53.4164 155.178 54.7422 155.142 56.0562C155.118 57.3583 155.077 58.6723 155.018 59.9981L144.79 59.8205C145.145 57.7253 145.453 55.6359 145.713 53.5525C145.974 51.4573 146.104 49.3442 146.104 47.2135C146.104 47.0596 146.098 46.811 146.086 46.4677C146.074 46.1244 146.051 45.7397 146.015 45.3135C145.98 44.8755 145.926 44.4316 145.855 43.9818C145.796 43.5201 145.707 43.0999 145.589 42.7211C145.483 42.3423 145.346 42.0345 145.181 41.7978C145.027 41.5492 144.837 41.4249 144.612 41.4249C144.21 41.4249 143.867 41.5433 143.583 41.78C143.31 42.0168 143.079 42.3245 142.89 42.7033C142.713 43.0703 142.57 43.4846 142.464 43.9463C142.357 44.408 142.275 44.8696 142.215 45.3313C142.168 45.793 142.132 46.2309 142.109 46.6453C142.097 47.0477 142.091 47.3792 142.091 47.6396C142.032 49.7349 141.985 51.8183 141.949 53.8899C141.913 55.9496 141.866 58.033 141.807 60.1401L132.751 60.5308C132.988 56.3521 133.213 52.1971 133.426 48.0658C133.651 43.9345 133.828 39.7795 133.959 35.6008L142.34 35.1746L142.269 38.0156C142.6 37.6132 142.955 37.2344 143.334 36.8792C143.725 36.5241 144.139 36.2222 144.577 35.9737C145.015 35.7132 145.477 35.512 145.962 35.3699C146.459 35.2161 146.98 35.1391 147.525 35.1391C148.531 35.1391 149.413 35.3048 150.17 35.6363C150.928 35.9677 151.579 36.4176 152.123 36.9858C152.668 37.554 153.124 38.2287 153.491 39.01C153.858 39.7795 154.154 40.6022 154.378 41.4781C154.603 42.3541 154.775 43.2715 154.893 44.2304C155.012 45.1774 155.089 46.1126 155.124 47.0359C155.172 47.9592 155.195 48.853 155.195 49.7171C155.195 50.5813 155.195 51.3685 155.195 52.0787ZM186.02 52.0787C186.02 53.4164 186.003 54.7422 185.967 56.0562C185.943 57.3583 185.902 58.6723 185.843 59.9981L175.615 59.8205C175.97 57.7253 176.278 55.6359 176.539 53.5525C176.799 51.4573 176.929 49.3442 176.929 47.2135C176.929 47.0596 176.923 46.811 176.911 46.4677C176.9 46.1244 176.876 45.7397 176.84 45.3135C176.805 44.8755 176.752 44.4316 176.681 43.9818C176.621 43.5201 176.533 43.0999 176.414 42.7211C176.308 42.3423 176.172 42.0345 176.006 41.7978C175.852 41.5492 175.663 41.4249 175.438 41.4249C175.035 41.4249 174.692 41.5433 174.408 41.78C174.135 42.0168 173.905 42.3245 173.715 42.7033C173.538 43.0703 173.396 43.4846 173.289 43.9463C173.183 44.408 173.1 44.8696 173.04 45.3313C172.993 45.793 172.958 46.2309 172.934 46.6453C172.922 47.0477 172.916 47.3792 172.916 47.6396C172.857 49.7349 172.81 51.8183 172.774 53.8899C172.739 55.9496 172.691 58.033 172.632 60.1401L163.576 60.5308C163.813 56.3521 164.038 52.1971 164.251 48.0658C164.476 43.9345 164.654 39.7795 164.784 35.6008L173.165 35.1746L173.094 38.0156C173.425 37.6132 173.78 37.2344 174.159 36.8792C174.55 36.5241 174.964 36.2222 175.402 35.9737C175.84 35.7132 176.302 35.512 176.787 35.3699C177.284 35.2161 177.805 35.1391 178.35 35.1391C179.356 35.1391 180.238 35.3048 180.995 35.6363C181.753 35.9677 182.404 36.4176 182.949 36.9858C183.493 37.554 183.949 38.2287 184.316 39.01C184.683 39.7795 184.979 40.6022 185.204 41.4781C185.429 42.3541 185.6 43.2715 185.719 44.2304C185.837 45.1774 185.914 46.1126 185.949 47.0359C185.997 47.9592 186.02 48.853 186.02 49.7171C186.02 50.5813 186.02 51.3685 186.02 52.0787ZM209.654 47.4621C209.654 48.5393 209.53 49.581 209.281 50.5872C209.033 51.5815 208.672 52.5167 208.198 53.3927C207.737 54.2687 207.168 55.0736 206.494 55.8076C205.831 56.5297 205.079 57.1511 204.239 57.672C203.41 58.1929 202.504 58.6013 201.522 58.8972C200.539 59.1813 199.498 59.3233 198.397 59.3233C197.331 59.3233 196.313 59.1872 195.343 58.915C194.384 58.6427 193.484 58.2639 192.644 57.7785C191.803 57.2814 191.04 56.6895 190.353 56.0029C189.678 55.3045 189.098 54.535 188.613 53.6946C188.139 52.8423 187.766 51.9308 187.494 50.9601C187.234 49.9894 187.104 48.9773 187.104 47.9237C187.104 46.8939 187.228 45.8877 187.476 44.9051C187.725 43.9108 188.08 42.9756 188.542 42.0996C189.015 41.2236 189.584 40.4187 190.246 39.6848C190.909 38.9508 191.649 38.3175 192.466 37.7848C193.295 37.2521 194.188 36.8378 195.147 36.5419C196.106 36.2459 197.118 36.098 198.184 36.098C199.9 36.098 201.463 36.3643 202.871 36.897C204.292 37.4297 205.499 38.1932 206.494 39.1876C207.5 40.1701 208.275 41.3657 208.82 42.7744C209.376 44.1712 209.654 45.7338 209.654 47.4621ZM201.77 47.9237C201.77 47.4147 201.693 46.9234 201.54 46.4499C201.397 45.9646 201.184 45.5384 200.9 45.1715C200.616 44.7927 200.261 44.4908 199.835 44.2659C199.421 44.0292 198.941 43.9108 198.397 43.9108C197.84 43.9108 197.343 44.0114 196.905 44.2126C196.467 44.4139 196.088 44.6921 195.769 45.0472C195.461 45.3905 195.224 45.7989 195.058 46.2724C194.893 46.734 194.81 47.2253 194.81 47.7462C194.81 48.2433 194.881 48.7405 195.023 49.2377C195.165 49.7349 195.378 50.1847 195.662 50.5872C195.946 50.9897 196.295 51.3152 196.71 51.5638C197.136 51.8124 197.627 51.9367 198.184 51.9367C198.74 51.9367 199.237 51.8301 199.675 51.6171C200.125 51.3921 200.504 51.0962 200.812 50.7292C201.119 50.3504 201.356 49.9184 201.522 49.433C201.688 48.9477 201.77 48.4446 201.77 47.9237ZM242.468 36.4176L238.313 60.3177L228.227 60.5308L226.061 48.4919L223.895 59.6075L213.809 59.9626L209.619 37.1278L218.426 36.3465L220.202 50.3741L222.581 37.4119H229.506L232.276 50.5517L233.696 35.6363L242.468 36.4176Z" fill="white" />
            </svg>