   <svg width="293" height="75" viewBox="0 0 293 75" fill="none" xmlns="http://www.w3.org/2000/svg">
                <path d="M292.999 0V74.9999L284.053 66.8999V8.20999L292.999 0Z" fill="#BC1B1B" />
                <path d="M293 74.9999L0 71.5699L8.94656 63.6699L284.053 66.8999L293 74.9999Z" fill="#DA291C" />
                <path d="M293 0L284.053 8.20999L8.94656 14.66L0 6.86999L293 0Z" fill="#DA291C" />
                <path d="M8.94656 14.6601V63.67L0 71.57V6.87012L8.94656 14.6601Z" fill="#BC1B1B" />
                <path d="M284.054 8V67.6928L8.94727 64.4628V14.45L284.054 8Z" fill="#F83628" />
                <path d="M56.2109 29.5234L55.5547 34.4688C55.3281 34.4062 55.1016 34.3633 54.875 34.3398C54.6484 34.3164 54.4219 34.3047 54.1953 34.3047C53.6172 34.3047 53.0664 34.3828 52.543 34.5391C52.0195 34.6875 51.5547 34.918 51.1484 35.2305C50.75 35.543 50.4297 35.9336 50.1875 36.4023C49.9531 36.8711 49.8359 37.4219 49.8359 38.0547C49.8359 38.4609 49.8984 38.8125 50.0234 39.1094C50.1562 39.4062 50.3398 39.6523 50.5742 39.8477C50.8086 40.043 51.0859 40.1875 51.4062 40.2812C51.7266 40.375 52.0781 40.4219 52.4609 40.4219C52.75 40.4219 53.0508 40.3906 53.3633 40.3281C53.6758 40.2656 53.9844 40.1836 54.2891 40.082C54.5938 39.9805 54.8906 39.8633 55.1797 39.7305C55.4688 39.5977 55.7344 39.4609 55.9766 39.3203L55.5078 44.8281C55.2031 44.9844 54.8711 45.125 54.5117 45.25C54.1602 45.3672 53.7969 45.4727 53.4219 45.5664C53.0469 45.6523 52.6719 45.7188 52.2969 45.7656C51.9219 45.8125 51.5625 45.8359 51.2188 45.8359C50.2266 45.8359 49.3008 45.6523 48.4414 45.2852C47.582 44.918 46.8359 44.4141 46.2031 43.7734C45.5703 43.1328 45.0703 42.3789 44.7031 41.5117C44.3438 40.6367 44.1641 39.6953 44.1641 38.6875C44.1641 37.3516 44.3555 36.0938 44.7383 34.9141C45.1211 33.7266 45.6836 32.6875 46.4258 31.7969C47.168 30.9062 48.0859 30.2031 49.1797 29.6875C50.2812 29.1719 51.5469 28.9141 52.9766 28.9141C53.5156 28.9141 54.0664 28.957 54.6289 29.043C55.1992 29.1289 55.7266 29.2891 56.2109 29.5234ZM70.6836 34.7031C70.6836 35.3125 70.6289 35.8672 70.5195 36.3672C70.418 36.8594 70.2539 37.3125 70.0273 37.7266C69.8008 38.1406 69.5078 38.5234 69.1484 38.875C68.7891 39.2266 68.3555 39.5625 67.8477 39.8828L70.6367 44.8516L65.3633 45.8828L63.5586 40.8906L62.1055 40.9375L61.8945 45.8125H56.8555C56.8945 44.0312 56.9297 42.2578 56.9609 40.4922C57 38.7266 57.043 36.9531 57.0898 35.1719C57.1055 34.2734 57.1211 33.3828 57.1367 32.5C57.1523 31.6172 57.1836 30.7266 57.2305 29.8281C57.7773 29.625 58.3164 29.457 58.8477 29.3242C59.3789 29.1914 59.9102 29.0898 60.4414 29.0195C60.9805 28.9414 61.5234 28.8906 62.0703 28.8672C62.625 28.8359 63.1914 28.8203 63.7695 28.8203C64.6602 28.8203 65.5195 28.9453 66.3477 29.1953C67.1836 29.4375 67.9219 29.8047 68.5625 30.2969C69.2031 30.7891 69.7148 31.4023 70.0977 32.1367C70.4883 32.8711 70.6836 33.7266 70.6836 34.7031ZM65.4336 35.0781C65.4336 34.75 65.3867 34.4492 65.293 34.1758C65.207 33.9023 65.0742 33.668 64.8945 33.4727C64.7227 33.2695 64.5039 33.1133 64.2383 33.0039C63.9805 32.8867 63.6758 32.8281 63.3242 32.8281C63.168 32.8281 63.0156 32.8398 62.8672 32.8633C62.7188 32.8789 62.5742 32.9062 62.4336 32.9453L62.2461 37.3047H62.5273C62.8633 37.3047 63.2031 37.2617 63.5469 37.1758C63.8984 37.0898 64.2109 36.957 64.4844 36.7773C64.7656 36.5977 64.9922 36.3672 65.1641 36.0859C65.3438 35.8047 65.4336 35.4688 65.4336 35.0781ZM82.6016 29.1016C82.5547 29.8359 82.5117 30.5625 82.4727 31.2812C82.4336 32 82.3828 32.7266 82.3203 33.4609L77.3516 33.7188L77.2344 35.1953H80.7266L80.4688 38.8281L76.9531 38.9453L76.8359 40.6562H79.7422H81.8047C81.7578 41.5156 81.707 42.3711 81.6523 43.2227C81.6055 44.0664 81.5625 44.9141 81.5234 45.7656L71.4219 46L71.7969 29.1016H82.6016ZM97.7891 44.9922L91.9766 45.7422L91.2734 43.0938H88.6016L88.0156 45.7422L82.0391 45.1562L86.7031 29.5469L93.2188 29.2188L97.7891 44.9922ZM90.8516 39.5078L89.9609 35.4297L89.0938 39.5078H90.8516ZM109.039 29.2422L108.922 34.2109L105.43 34.3516L104.539 45.4609L99.5938 45.7188L99.6172 34.6094L96.125 34.7969L96.2656 29.2656L109.039 29.2422ZM120.781 29.1016C120.734 29.8359 120.691 30.5625 120.652 31.2812C120.613 32 120.562 32.7266 120.5 33.4609L115.531 33.7188L115.414 35.1953H118.906L118.648 38.8281L115.133 38.9453L115.016 40.6562H117.922H119.984C119.938 41.5156 119.887 42.3711 119.832 43.2227C119.785 44.0664 119.742 44.9141 119.703 45.7656L109.602 46L109.977 29.1016H120.781ZM140.938 30.1328L134.492 39.1328L134.188 46.4688H128.633L128.773 39.1797L125.422 30.4844L131.398 29.7344L132.336 34.7969L135.312 29.7344L140.938 30.1328ZM153.395 37.7266C153.395 38.4375 153.312 39.125 153.148 39.7891C152.984 40.4453 152.746 41.0625 152.434 41.6406C152.129 42.2188 151.754 42.75 151.309 43.2344C150.871 43.7109 150.375 44.1211 149.82 44.4648C149.273 44.8086 148.676 45.0781 148.027 45.2734C147.379 45.4609 146.691 45.5547 145.965 45.5547C145.262 45.5547 144.59 45.4648 143.949 45.2852C143.316 45.1055 142.723 44.8555 142.168 44.5352C141.613 44.207 141.109 43.8164 140.656 43.3633C140.211 42.9023 139.828 42.3945 139.508 41.8398C139.195 41.2773 138.949 40.6758 138.77 40.0352C138.598 39.3945 138.512 38.7266 138.512 38.0312C138.512 37.3516 138.594 36.6875 138.758 36.0391C138.922 35.3828 139.156 34.7656 139.461 34.1875C139.773 33.6094 140.148 33.0781 140.586 32.5938C141.023 32.1094 141.512 31.6914 142.051 31.3398C142.598 30.9883 143.188 30.7148 143.82 30.5195C144.453 30.3242 145.121 30.2266 145.824 30.2266C146.957 30.2266 147.988 30.4023 148.918 30.7539C149.855 31.1055 150.652 31.6094 151.309 32.2656C151.973 32.9141 152.484 33.7031 152.844 34.6328C153.211 35.5547 153.395 36.5859 153.395 37.7266ZM148.191 38.0312C148.191 37.6953 148.141 37.3711 148.039 37.0586C147.945 36.7383 147.805 36.457 147.617 36.2148C147.43 35.9648 147.195 35.7656 146.914 35.6172C146.641 35.4609 146.324 35.3828 145.965 35.3828C145.598 35.3828 145.27 35.4492 144.98 35.582C144.691 35.7148 144.441 35.8984 144.23 36.1328C144.027 36.3594 143.871 36.6289 143.762 36.9414C143.652 37.2461 143.598 37.5703 143.598 37.9141C143.598 38.2422 143.645 38.5703 143.738 38.8984C143.832 39.2266 143.973 39.5234 144.16 39.7891C144.348 40.0547 144.578 40.2695 144.852 40.4336C145.133 40.5977 145.457 40.6797 145.824 40.6797C146.191 40.6797 146.52 40.6094 146.809 40.4688C147.105 40.3203 147.355 40.125 147.559 39.8828C147.762 39.6328 147.918 39.3477 148.027 39.0273C148.137 38.707 148.191 38.375 148.191 38.0312ZM168.23 32.9688C168.23 33.5469 168.203 34.1836 168.148 34.8789C168.094 35.5742 168.004 36.293 167.879 37.0352C167.754 37.7773 167.59 38.5312 167.387 39.2969C167.191 40.0547 166.945 40.7852 166.648 41.4883C166.352 42.1914 166.004 42.8516 165.605 43.4688C165.215 44.0781 164.762 44.6133 164.246 45.0742C163.738 45.5273 163.168 45.8828 162.535 46.1406C161.902 46.4062 161.199 46.5391 160.426 46.5391C159.52 46.5391 158.73 46.3906 158.059 46.0938C157.395 45.8047 156.824 45.4141 156.348 44.9219C155.871 44.4219 155.48 43.8438 155.176 43.1875C154.871 42.5234 154.633 41.8242 154.461 41.0898C154.289 40.3477 154.168 39.5938 154.098 38.8281C154.035 38.0547 154.004 37.3125 154.004 36.6016C154.004 35.5078 154.059 34.418 154.168 33.332C154.277 32.2383 154.434 31.1484 154.637 30.0625L160.121 30.2734C159.91 31.5 159.727 32.7344 159.57 33.9766C159.422 35.2109 159.348 36.4531 159.348 37.7031C159.348 37.8359 159.352 38.0352 159.359 38.3008C159.375 38.5586 159.398 38.8516 159.43 39.1797C159.461 39.5 159.504 39.832 159.559 40.1758C159.621 40.5117 159.703 40.8203 159.805 41.1016C159.906 41.3828 160.027 41.6133 160.168 41.793C160.316 41.9727 160.488 42.0625 160.684 42.0625C160.91 42.0625 161.113 41.957 161.293 41.7461C161.473 41.5273 161.629 41.2383 161.762 40.8789C161.902 40.5195 162.023 40.1055 162.125 39.6367C162.227 39.168 162.312 38.6797 162.383 38.1719C162.453 37.6641 162.508 37.1562 162.547 36.6484C162.594 36.1406 162.629 35.668 162.652 35.2305C162.684 34.793 162.703 34.4062 162.711 34.0703C162.719 33.7344 162.723 33.4844 162.723 33.3203C162.723 32.7109 162.711 32.1055 162.688 31.5039C162.672 30.8945 162.645 30.2891 162.605 29.6875H168.09C168.184 30.7656 168.23 31.8594 168.23 32.9688ZM182.902 34.7031C182.902 35.3125 182.848 35.8672 182.738 36.3672C182.637 36.8594 182.473 37.3125 182.246 37.7266C182.02 38.1406 181.727 38.5234 181.367 38.875C181.008 39.2266 180.574 39.5625 180.066 39.8828L182.855 44.8516L177.582 45.8828L175.777 40.8906L174.324 40.9375L174.113 45.8125H169.074C169.113 44.0312 169.148 42.2578 169.18 40.4922C169.219 38.7266 169.262 36.9531 169.309 35.1719C169.324 34.2734 169.34 33.3828 169.355 32.5C169.371 31.6172 169.402 30.7266 169.449 29.8281C169.996 29.625 170.535 29.457 171.066 29.3242C171.598 29.1914 172.129 29.0898 172.66 29.0195C173.199 28.9414 173.742 28.8906 174.289 28.8672C174.844 28.8359 175.41 28.8203 175.988 28.8203C176.879 28.8203 177.738 28.9453 178.566 29.1953C179.402 29.4375 180.141 29.8047 180.781 30.2969C181.422 30.7891 181.934 31.4023 182.316 32.1367C182.707 32.8711 182.902 33.7266 182.902 34.7031ZM177.652 35.0781C177.652 34.75 177.605 34.4492 177.512 34.1758C177.426 33.9023 177.293 33.668 177.113 33.4727C176.941 33.2695 176.723 33.1133 176.457 33.0039C176.199 32.8867 175.895 32.8281 175.543 32.8281C175.387 32.8281 175.234 32.8398 175.086 32.8633C174.938 32.8789 174.793 32.9062 174.652 32.9453L174.465 37.3047H174.746C175.082 37.3047 175.422 37.2617 175.766 37.1758C176.117 37.0898 176.43 36.957 176.703 36.7773C176.984 36.5977 177.211 36.3672 177.383 36.0859C177.562 35.8047 177.652 35.4688 177.652 35.0781ZM206.527 28.9141L205.449 46.1172L200.105 46.3516L200.152 37.2812L197.738 44.5938H195.676L193.824 38.0547L193.801 45.6484L188.387 45.8125L188.621 29.6172L194.645 29.3828L197.035 37.1406L200.223 28.9141H206.527ZM218.492 29.1016C218.445 29.8359 218.402 30.5625 218.363 31.2812C218.324 32 218.273 32.7266 218.211 33.4609L213.242 33.7188L213.125 35.1953H216.617L216.359 38.8281L212.844 38.9453L212.727 40.6562H215.633H217.695C217.648 41.5156 217.598 42.3711 217.543 43.2227C217.496 44.0664 217.453 44.9141 217.414 45.7656L207.312 46L207.688 29.1016H218.492ZM237.02 28.9141L235.941 46.1172L230.598 46.3516L230.645 37.2812L228.23 44.5938H226.168L224.316 38.0547L224.293 45.6484L218.879 45.8125L219.113 29.6172L225.137 29.3828L227.527 37.1406L230.715 28.9141H237.02ZM248.984 29.1016C248.938 29.8359 248.895 30.5625 248.855 31.2812C248.816 32 248.766 32.7266 248.703 33.4609L243.734 33.7188L243.617 35.1953H247.109L246.852 38.8281L243.336 38.9453L243.219 40.6562H246.125H248.188C248.141 41.5156 248.09 42.3711 248.035 43.2227C247.988 44.0664 247.945 44.9141 247.906 45.7656L237.805 46L238.18 29.1016H248.984Z" fill="white" />
            </svg>