  <svg width="335" height="75" viewBox="0 0 241 75" fill="none" xmlns="http://www.w3.org/2000/svg">
                <path d="M241 0.125977V74.9106L233.641 66.8339V8.3124L241 0.125977Z" fill="#067A52" />
                <path d="M241 74.9108L0 71.4906L7.35878 63.6133L233.641 66.834L241 74.9108Z" fill="#26956F" />
                <path d="M241 0.125977L233.641 8.3124L7.35878 14.7439L0 6.97625L241 0.125977Z" fill="#26956F" />
                <path d="M7.35878 14.7442V63.6135L0 71.4908V6.97656L7.35878 14.7442Z" fill="#067A52" />
                <path d="M233.642 8.10303V67.6245L7.35913 64.4038V14.5345L233.642 8.10303Z" fill="#13AA76" />
                <path d="M66.1853 26.6759L40.8362 36.4509C39.1063 37.1458 39.1163 38.1108 40.5188 38.5412L47.0269 40.5714L62.0848 31.0708C62.7968 30.6376 63.4473 30.8707 62.9126 31.3454L50.7128 42.3557H50.7099L50.7128 42.3571L50.2638 49.0654C50.9215 49.0654 51.2117 48.7637 51.5806 48.4077L54.7417 45.3338L61.317 50.1906C62.5295 50.8583 63.4002 50.5151 63.7018 49.0682L68.0182 28.7261C68.46 26.9547 67.3419 26.1526 66.1853 26.6759Z" fill="white" />
                <path d="M110.096 37.7485C110.096 39.0519 110.055 40.3507 109.973 41.645C109.891 42.9393 109.795 44.2381 109.686 45.5415L102.658 45.8696C102.868 44.2837 103.055 42.6978 103.219 41.1118C103.392 39.5168 103.479 37.9217 103.479 36.3267C103.479 36.2264 103.474 36.0532 103.465 35.8071C103.456 35.5519 103.438 35.2648 103.41 34.9458C103.392 34.6268 103.36 34.2987 103.314 33.9614C103.278 33.6151 103.223 33.3006 103.15 33.0181C103.087 32.7264 103.005 32.4894 102.904 32.3071C102.804 32.1248 102.686 32.0337 102.549 32.0337C102.23 32.0337 101.979 32.1567 101.797 32.4028C101.615 32.6398 101.478 32.9269 101.387 33.2642C101.305 33.6014 101.255 33.9478 101.236 34.3032C101.218 34.6496 101.209 34.9321 101.209 35.1509C101.209 35.5337 101.218 35.9165 101.236 36.2993C101.255 36.6821 101.264 37.0741 101.264 37.4751C101.264 38.8879 101.227 40.2961 101.154 41.6997C101.09 43.1034 101.008 44.5116 100.908 45.9243L94.4277 46.1704C94.6374 44.5845 94.8197 43.0031 94.9746 41.4263C95.1387 39.8403 95.2207 38.2498 95.2207 36.6548C95.2207 36.5545 95.2161 36.3722 95.207 36.1079C95.1979 35.8436 95.1797 35.5474 95.1523 35.2192C95.1341 34.8911 95.1022 34.5493 95.0566 34.1938C95.0111 33.8384 94.9518 33.5148 94.8789 33.2231C94.8151 32.9224 94.7331 32.6763 94.6328 32.4849C94.5326 32.2935 94.4095 32.1978 94.2637 32.1978C94.0358 32.1978 93.8444 32.2889 93.6895 32.4712C93.5345 32.6444 93.4069 32.8722 93.3066 33.1548C93.2155 33.4373 93.1426 33.7518 93.0879 34.0981C93.0423 34.4354 93.0059 34.7681 92.9785 35.0962C92.9603 35.4243 92.9466 35.7297 92.9375 36.0122C92.9375 36.2856 92.9329 36.4907 92.9238 36.6274L92.623 46.6079H85.7324C85.8783 45.0675 86.0241 43.5226 86.1699 41.9731C86.3249 40.4237 86.457 38.8787 86.5664 37.3384C86.6849 35.7889 86.7806 34.2394 86.8535 32.6899C86.9264 31.1405 86.9629 29.591 86.9629 28.0415L93.4707 27.7681L93.4434 29.354C93.6439 29.0988 93.8717 28.8436 94.127 28.5884C94.3822 28.3241 94.651 28.0916 94.9336 27.8911C95.2253 27.6815 95.5306 27.5129 95.8496 27.3853C96.1777 27.2576 96.515 27.1938 96.8613 27.1938C97.3079 27.1938 97.709 27.2303 98.0645 27.3032C98.4199 27.367 98.7389 27.481 99.0215 27.645C99.3132 27.8091 99.5684 28.0369 99.7871 28.3286C100.006 28.6112 100.197 28.9712 100.361 29.4087C100.653 29.0897 100.945 28.7935 101.236 28.52C101.537 28.2466 101.852 28.0142 102.18 27.8228C102.508 27.6222 102.863 27.4673 103.246 27.3579C103.629 27.2485 104.053 27.1938 104.518 27.1938C105.402 27.1938 106.154 27.367 106.773 27.7134C107.393 28.0506 107.908 28.5018 108.318 29.0669C108.738 29.632 109.061 30.2791 109.289 31.0083C109.526 31.7375 109.704 32.494 109.822 33.2778C109.941 34.0617 110.014 34.841 110.041 35.6157C110.077 36.3905 110.096 37.1014 110.096 37.7485ZM118.49 27.7681L117.533 46.3892L111.764 46.6899L111.217 28.1509L118.49 27.7681ZM136.578 40.1001C136.578 41.13 136.564 42.1509 136.537 43.1626C136.519 44.1652 136.487 45.1769 136.441 46.1978L128.566 46.061C128.84 44.4478 129.077 42.839 129.277 41.2349C129.478 39.6216 129.578 37.9946 129.578 36.354C129.578 36.2355 129.574 36.0441 129.564 35.7798C129.555 35.5155 129.537 35.2192 129.51 34.8911C129.482 34.5539 129.441 34.2121 129.387 33.8657C129.341 33.5103 129.273 33.1867 129.182 32.895C129.1 32.6034 128.995 32.3664 128.867 32.1841C128.749 31.9927 128.603 31.897 128.43 31.897C128.12 31.897 127.855 31.9881 127.637 32.1704C127.427 32.3527 127.249 32.5897 127.104 32.8813C126.967 33.1639 126.857 33.4829 126.775 33.8384C126.693 34.1938 126.63 34.5493 126.584 34.9048C126.548 35.2603 126.52 35.5975 126.502 35.9165C126.493 36.2264 126.488 36.4816 126.488 36.6821C126.443 38.2954 126.406 39.8996 126.379 41.4946C126.352 43.0806 126.315 44.6847 126.27 46.3071L119.297 46.6079C119.479 43.3905 119.652 40.1912 119.816 37.0103C119.99 33.8293 120.126 30.63 120.227 27.4126L126.68 27.0845L126.625 29.272C126.88 28.9621 127.154 28.6704 127.445 28.397C127.746 28.1235 128.065 27.8911 128.402 27.6997C128.74 27.4992 129.095 27.3442 129.469 27.2349C129.852 27.1164 130.253 27.0571 130.672 27.0571C131.447 27.0571 132.126 27.1847 132.709 27.4399C133.292 27.6951 133.794 28.0415 134.213 28.479C134.632 28.9165 134.983 29.436 135.266 30.0376C135.548 30.63 135.776 31.2635 135.949 31.938C136.122 32.6125 136.255 33.3188 136.346 34.0571C136.437 34.7863 136.496 35.5063 136.523 36.2173C136.56 36.9282 136.578 37.6164 136.578 38.2817C136.578 38.9471 136.578 39.5532 136.578 40.1001ZM145.014 27.7681L144.057 46.3892L138.287 46.6899L137.74 28.1509L145.014 27.7681ZM168.844 45.8423L162.062 46.7173L161.242 43.6274H158.125L157.441 46.7173L150.469 46.0337L155.91 27.8228L163.512 27.4399L168.844 45.8423ZM160.75 39.4438L159.711 34.686L158.699 39.4438H160.75ZM185.059 34.4126C185.059 35.2967 184.926 36.0806 184.662 36.7642C184.398 37.4478 184.033 38.0493 183.568 38.5688C183.113 39.0793 182.575 39.5122 181.955 39.8677C181.335 40.214 180.67 40.5011 179.959 40.729C179.257 40.9478 178.528 41.1118 177.771 41.2212C177.015 41.3215 176.272 41.3761 175.543 41.3853V47.2095H169.172C169.172 46.1704 169.172 45.1587 169.172 44.1743C169.181 43.1899 169.186 42.2147 169.186 41.2485C169.195 40.2733 169.199 39.2935 169.199 38.3091C169.208 37.3247 169.217 36.3084 169.227 35.2603C169.245 34.1483 169.249 33.0363 169.24 31.9243C169.231 30.8123 169.254 29.6912 169.309 28.561C170.475 28.2147 171.642 27.9549 172.809 27.7817C173.975 27.6086 175.178 27.522 176.418 27.522C177.12 27.522 177.822 27.5812 178.523 27.6997C179.225 27.8091 179.895 27.9868 180.533 28.2329C181.18 28.479 181.777 28.7889 182.324 29.1626C182.88 29.5272 183.359 29.9647 183.76 30.4751C184.161 30.9855 184.475 31.5688 184.703 32.2251C184.94 32.8813 185.059 33.6105 185.059 34.4126ZM178.988 34.8774C178.988 34.285 178.806 33.8247 178.441 33.4966C178.086 33.1593 177.621 32.9907 177.047 32.9907C176.855 32.9907 176.655 33.009 176.445 33.0454C176.245 33.0728 176.053 33.1092 175.871 33.1548L175.707 37.147C175.835 37.1652 175.958 37.1743 176.076 37.1743C176.195 37.1743 176.318 37.1743 176.445 37.1743C176.773 37.1743 177.088 37.1196 177.389 37.0103C177.699 36.9009 177.972 36.7459 178.209 36.5454C178.446 36.3358 178.633 36.0942 178.77 35.8208C178.915 35.5382 178.988 35.2238 178.988 34.8774ZM201.766 34.4126C201.766 35.2967 201.633 36.0806 201.369 36.7642C201.105 37.4478 200.74 38.0493 200.275 38.5688C199.82 39.0793 199.282 39.5122 198.662 39.8677C198.042 40.214 197.377 40.5011 196.666 40.729C195.964 40.9478 195.235 41.1118 194.479 41.2212C193.722 41.3215 192.979 41.3761 192.25 41.3853V47.2095H185.879C185.879 46.1704 185.879 45.1587 185.879 44.1743C185.888 43.1899 185.893 42.2147 185.893 41.2485C185.902 40.2733 185.906 39.2935 185.906 38.3091C185.915 37.3247 185.924 36.3084 185.934 35.2603C185.952 34.1483 185.956 33.0363 185.947 31.9243C185.938 30.8123 185.961 29.6912 186.016 28.561C187.182 28.2147 188.349 27.9549 189.516 27.7817C190.682 27.6086 191.885 27.522 193.125 27.522C193.827 27.522 194.529 27.5812 195.23 27.6997C195.932 27.8091 196.602 27.9868 197.24 28.2329C197.887 28.479 198.484 28.7889 199.031 29.1626C199.587 29.5272 200.066 29.9647 200.467 30.4751C200.868 30.9855 201.182 31.5688 201.41 32.2251C201.647 32.8813 201.766 33.6105 201.766 34.4126ZM195.695 34.8774C195.695 34.285 195.513 33.8247 195.148 33.4966C194.793 33.1593 194.328 32.9907 193.754 32.9907C193.562 32.9907 193.362 33.009 193.152 33.0454C192.952 33.0728 192.76 33.1092 192.578 33.1548L192.414 37.147C192.542 37.1652 192.665 37.1743 192.783 37.1743C192.902 37.1743 193.025 37.1743 193.152 37.1743C193.48 37.1743 193.795 37.1196 194.096 37.0103C194.406 36.9009 194.679 36.7459 194.916 36.5454C195.153 36.3358 195.34 36.0942 195.477 35.8208C195.622 35.5382 195.695 35.2238 195.695 34.8774Z" fill="white" />
            </svg>