  <svg width="335" height="76" viewBox="0 0 335 76" fill="none" xmlns="http://www.w3.org/2000/svg">
                <path d="M335 0.784668V75.5693L324.771 67.4926V8.97109L335 0.784668Z" fill="#067A52" />
                <path d="M335 75.5694L0 72.1493L10.229 64.272L324.771 67.4927L335 75.5694Z" fill="#26956F" />
                <path d="M335 0.784668L324.771 8.97109L10.229 15.4026L0 7.63494L335 0.784668Z" fill="#26956F" />
                <path d="M10.229 15.4029V64.2722L0 72.1495V7.63525L10.229 15.4029Z" fill="#067A52" />
                <path d="M325 8.76318V68.2847L10.0001 65.0854V15.2162L325 8.76318Z" fill="#13AA76" />
                <path d="M82 36.7846L88 38.7846L103 29.7846C103.222 29.6513 104.191 30.6115 104 30.7846L92 40.7846V46.7846C91.6756 47.0982 91.9673 47.2308 92 46.7846L96 43.7846L103 48.7846C103.702 49.3075 103.811 48.6306 104 47.7846L109 27.7846C109.259 26.6289 108.124 25.3613 107 25.7846L82 35.7846C81.2044 36.0842 81.1933 36.5152 82 36.7846Z" fill="white" />
                <path d="M144.715 29.1987L143.637 46.4019L138.293 46.6362L138.34 37.5659L135.926 44.8784H133.863L132.012 38.3394L131.988 45.9331L126.574 46.0972L126.809 29.9019L132.832 29.6675L135.223 37.4253L138.41 29.1987H144.715ZM151.91 29.7847L150.621 45.7456L145.676 46.0034V30.1128L151.91 29.7847ZM168.668 29.48L167.824 45.3706L161.684 45.9331L158.402 37.4253L157.887 46.0972H152.613L153.035 29.48L158.895 29.1987L162.949 37.6362L163.137 29.6675L168.668 29.48ZM175.957 29.7847L174.668 45.7456L169.723 46.0034V30.1128L175.957 29.7847ZM196.242 45.2769L190.43 46.0269L189.727 43.3784H187.055L186.469 46.0269L180.492 45.4409L185.156 29.8315L191.672 29.5034L196.242 45.2769ZM189.305 39.7925L188.414 35.7144L187.547 39.7925H189.305ZM210.141 35.0112C210.141 35.769 210.027 36.4409 209.801 37.0269C209.574 37.6128 209.262 38.1245 208.863 38.562C208.473 38.9995 208.012 39.3706 207.48 39.6753C206.949 39.98 206.379 40.23 205.77 40.4253C205.168 40.6128 204.543 40.7534 203.895 40.8472C203.246 40.9331 202.609 40.98 201.984 40.9878V46.4487H196.523C196.523 44.6597 196.527 42.8784 196.535 41.105C196.543 39.3315 196.555 37.5425 196.57 35.7378C196.586 34.7847 196.59 33.8315 196.582 32.8784C196.574 31.9253 196.594 30.9644 196.641 29.9956C197.641 29.6987 198.641 29.4761 199.641 29.3276C200.641 29.1792 201.672 29.105 202.734 29.105C203.336 29.105 203.938 29.1558 204.539 29.2573C205.141 29.3511 205.715 29.5034 206.262 29.7144C206.816 29.9253 207.328 30.1909 207.797 30.5112C208.273 30.8237 208.684 31.1987 209.027 31.6362C209.371 32.0737 209.641 32.5737 209.836 33.1362C210.039 33.6909 210.141 34.3159 210.141 35.0112ZM204.938 35.4097C204.938 34.9019 204.781 34.5073 204.469 34.2261C204.164 33.937 203.766 33.7925 203.273 33.7925C203.109 33.7925 202.938 33.8081 202.758 33.8394C202.586 33.8628 202.422 33.894 202.266 33.9331L202.125 37.355C202.234 37.3706 202.34 37.3784 202.441 37.3784C202.543 37.3784 202.648 37.3784 202.758 37.3784C203.039 37.3784 203.309 37.3315 203.566 37.2378C203.832 37.144 204.066 37.0112 204.27 36.8394C204.473 36.6597 204.633 36.4526 204.75 36.2183C204.875 35.9761 204.938 35.7065 204.938 35.4097ZM224.438 35.0112C224.438 35.769 224.324 36.4409 224.098 37.0269C223.871 37.6128 223.559 38.1245 223.16 38.562C222.77 38.9995 222.309 39.3706 221.777 39.6753C221.246 39.98 220.676 40.23 220.066 40.4253C219.465 40.6128 218.84 40.7534 218.191 40.8472C217.543 40.9331 216.906 40.98 216.281 40.9878V46.4487H210.82C210.82 44.6597 210.824 42.8784 210.832 41.105C210.84 39.3315 210.852 37.5425 210.867 35.7378C210.883 34.7847 210.887 33.8315 210.879 32.8784C210.871 31.9253 210.891 30.9644 210.938 29.9956C211.938 29.6987 212.938 29.4761 213.938 29.3276C214.938 29.1792 215.969 29.105 217.031 29.105C217.633 29.105 218.234 29.1558 218.836 29.2573C219.438 29.3511 220.012 29.5034 220.559 29.7144C221.113 29.9253 221.625 30.1909 222.094 30.5112C222.57 30.8237 222.98 31.1987 223.324 31.6362C223.668 32.0737 223.938 32.5737 224.133 33.1362C224.336 33.6909 224.438 34.3159 224.438 35.0112ZM219.234 35.4097C219.234 34.9019 219.078 34.5073 218.766 34.2261C218.461 33.937 218.062 33.7925 217.57 33.7925C217.406 33.7925 217.234 33.8081 217.055 33.8394C216.883 33.8628 216.719 33.894 216.562 33.9331L216.422 37.355C216.531 37.3706 216.637 37.3784 216.738 37.3784C216.84 37.3784 216.945 37.3784 217.055 37.3784C217.336 37.3784 217.605 37.3315 217.863 37.2378C218.129 37.144 218.363 37.0112 218.566 36.8394C218.77 36.6597 218.93 36.4526 219.047 36.2183C219.172 35.9761 219.234 35.7065 219.234 35.4097Z" fill="white" />
            </svg>
