 <svg width="335" height="75" viewBox="0 0 335 75" fill="none" xmlns="http://www.w3.org/2000/svg">
                <path d="M335 0V74.7847L324.771 66.7079V8.18643L335 0Z" fill="#BC1B1B" />
                <path d="M335 74.7848L0 71.3646L10.229 63.4873L324.771 66.708L335 74.7848Z" fill="#DA291C" />
                <path d="M335 0L324.771 8.18643L10.229 14.6179L0 6.85028L335 0Z" fill="#DA291C" />
                <path d="M10.229 14.618V63.4873L0 71.3646V6.85034L10.229 14.618Z" fill="#BC1B1B" />
                <path d="M324.542 8V67.5215L10.0001 64.3008V14.4315L324.542 8Z" fill="#F83628" />
                <path d="M82 35.9999L88 37.9999L103 28.9999C103.222 28.8666 104.191 29.8269 104 29.9999L92 39.9999V45.9999C91.6756 46.3136 91.9673 46.4462 92 45.9999L96 42.9999L103 47.9999C103.702 48.5228 103.811 47.8459 104 46.9999L109 26.9999C109.259 25.8442 108.124 24.5767 107 24.9999L82 34.9999C81.2044 35.2995 81.1933 35.7305 82 35.9999Z" fill="white" />
                <path d="M140.25 34.2266C140.25 34.9844 140.137 35.6562 139.91 36.2422C139.684 36.8281 139.371 37.3398 138.973 37.7773C138.582 38.2148 138.121 38.5859 137.59 38.8906C137.059 39.1953 136.488 39.4453 135.879 39.6406C135.277 39.8281 134.652 39.9688 134.004 40.0625C133.355 40.1484 132.719 40.1953 132.094 40.2031V45.6641H126.633C126.633 43.875 126.637 42.0938 126.645 40.3203C126.652 38.5469 126.664 36.7578 126.68 34.9531C126.695 34 126.699 33.0469 126.691 32.0938C126.684 31.1406 126.703 30.1797 126.75 29.2109C127.75 28.9141 128.75 28.6914 129.75 28.543C130.75 28.3945 131.781 28.3203 132.844 28.3203C133.445 28.3203 134.047 28.3711 134.648 28.4727C135.25 28.5664 135.824 28.7188 136.371 28.9297C136.926 29.1406 137.438 29.4062 137.906 29.7266C138.383 30.0391 138.793 30.4141 139.137 30.8516C139.48 31.2891 139.75 31.7891 139.945 32.3516C140.148 32.9062 140.25 33.5312 140.25 34.2266ZM135.047 34.625C135.047 34.1172 134.891 33.7227 134.578 33.4414C134.273 33.1523 133.875 33.0078 133.383 33.0078C133.219 33.0078 133.047 33.0234 132.867 33.0547C132.695 33.0781 132.531 33.1094 132.375 33.1484L132.234 36.5703C132.344 36.5859 132.449 36.5938 132.551 36.5938C132.652 36.5938 132.758 36.5938 132.867 36.5938C133.148 36.5938 133.418 36.5469 133.676 36.4531C133.941 36.3594 134.176 36.2266 134.379 36.0547C134.582 35.875 134.742 35.668 134.859 35.4336C134.984 35.1914 135.047 34.9219 135.047 34.625ZM151.195 38.8203L150.703 44.0234L140.836 44.7969C140.883 42.0703 140.934 39.3594 140.988 36.6641C141.051 33.9688 141.125 31.2578 141.211 28.5312H147.305C147.125 30.2422 146.953 31.9531 146.789 33.6641C146.625 35.3672 146.508 37.0859 146.438 38.8203C146.805 38.8359 147.168 38.8438 147.527 38.8438C147.887 38.8438 148.25 38.8438 148.617 38.8438C149.055 38.8438 149.484 38.8398 149.906 38.832C150.328 38.8242 150.758 38.8203 151.195 38.8203ZM166.523 44.4922L160.711 45.2422L160.008 42.5938H157.336L156.75 45.2422L150.773 44.6562L155.438 29.0469L161.953 28.7188L166.523 44.4922ZM159.586 39.0078L158.695 34.9297L157.828 39.0078H159.586ZM180.375 29.6328L173.93 38.6328L173.625 45.9688H168.07L168.211 38.6797L164.859 29.9844L170.836 29.2344L171.773 34.2969L174.75 29.2344L180.375 29.6328ZM200.52 28.6953L199.676 44.5859L193.535 45.1484L190.254 36.6406L189.738 45.3125H184.465L184.887 28.6953L190.746 28.4141L194.801 36.8516L194.988 28.8828L200.52 28.6953ZM215.801 37.2266C215.801 37.9375 215.719 38.625 215.555 39.2891C215.391 39.9453 215.152 40.5625 214.84 41.1406C214.535 41.7188 214.16 42.25 213.715 42.7344C213.277 43.2109 212.781 43.6211 212.227 43.9648C211.68 44.3086 211.082 44.5781 210.434 44.7734C209.785 44.9609 209.098 45.0547 208.371 45.0547C207.668 45.0547 206.996 44.9648 206.355 44.7852C205.723 44.6055 205.129 44.3555 204.574 44.0352C204.02 43.707 203.516 43.3164 203.062 42.8633C202.617 42.4023 202.234 41.8945 201.914 41.3398C201.602 40.7773 201.355 40.1758 201.176 39.5352C201.004 38.8945 200.918 38.2266 200.918 37.5312C200.918 36.8516 201 36.1875 201.164 35.5391C201.328 34.8828 201.562 34.2656 201.867 33.6875C202.18 33.1094 202.555 32.5781 202.992 32.0938C203.43 31.6094 203.918 31.1914 204.457 30.8398C205.004 30.4883 205.594 30.2148 206.227 30.0195C206.859 29.8242 207.527 29.7266 208.23 29.7266C209.363 29.7266 210.395 29.9023 211.324 30.2539C212.262 30.6055 213.059 31.1094 213.715 31.7656C214.379 32.4141 214.891 33.2031 215.25 34.1328C215.617 35.0547 215.801 36.0859 215.801 37.2266ZM210.598 37.5312C210.598 37.1953 210.547 36.8711 210.445 36.5586C210.352 36.2383 210.211 35.957 210.023 35.7148C209.836 35.4648 209.602 35.2656 209.32 35.1172C209.047 34.9609 208.73 34.8828 208.371 34.8828C208.004 34.8828 207.676 34.9492 207.387 35.082C207.098 35.2148 206.848 35.3984 206.637 35.6328C206.434 35.8594 206.277 36.1289 206.168 36.4414C206.059 36.7461 206.004 37.0703 206.004 37.4141C206.004 37.7422 206.051 38.0703 206.145 38.3984C206.238 38.7266 206.379 39.0234 206.566 39.2891C206.754 39.5547 206.984 39.7695 207.258 39.9336C207.539 40.0977 207.863 40.1797 208.23 40.1797C208.598 40.1797 208.926 40.1094 209.215 39.9688C209.512 39.8203 209.762 39.625 209.965 39.3828C210.168 39.1328 210.324 38.8477 210.434 38.5273C210.543 38.207 210.598 37.875 210.598 37.5312ZM237.34 29.2344L234.598 45.4766L227.941 45.6172L226.512 37.2031L225.082 45.0078L218.426 45.2422L215.66 29.2344L221.473 28.7188L222.645 38.4453L224.215 28.7188H228.785L230.613 38.5625L231.551 28.7188L237.34 29.2344Z" fill="white" />
            </svg>