<svg width="241" height="75" viewBox="0 0 241 75" fill="none" xmlns="http://www.w3.org/2000/svg">
<path d="M240.999 0.125977V74.9106L233.641 66.8339V8.3124L240.999 0.125977Z" fill="#BC1B1B"/>
<path d="M241 74.9108L0 71.4906L7.35878 63.6133L233.641 66.834L241 74.9108Z" fill="#DA291C"/>
<path d="M241 0.125977L233.641 8.3124L7.35878 14.7439L0 6.97625L241 0.125977Z" fill="#DA291C"/>
<path d="M7.35878 14.7442V63.6135L0 71.4908V6.97656L7.35878 14.7442Z" fill="#BC1B1B"/>
<path d="M233.642 8.10352V67.625L7.35938 64.4043V14.535L233.642 8.10352Z" fill="#F83628"/>
<path d="M60.1853 26.6764L34.8362 36.4514C33.1063 37.1462 33.1163 38.1113 34.5188 38.5417L41.0269 40.5719L56.0848 31.0713C56.7968 30.6381 57.4473 30.8712 56.9126 31.3458L44.7128 42.3562H44.7099L44.7128 42.3576L44.2638 49.0659C44.9215 49.0659 45.2117 48.7642 45.5806 48.4082L48.7417 45.3343L55.317 50.1911C56.5295 50.8587 57.4002 50.5156 57.7018 49.0687L62.0182 28.7266C62.46 26.9552 61.3419 26.1531 60.1853 26.6764Z" fill="white"/>
<path d="M96.125 33.8662C96.125 34.7503 95.9928 35.5342 95.7285 36.2178C95.4642 36.9014 95.0996 37.4984 94.6348 38.0088C94.179 38.5192 93.6413 38.9521 93.0215 39.3076C92.4017 39.6631 91.7363 39.9548 91.0254 40.1826C90.3236 40.4014 89.5944 40.5654 88.8379 40.6748C88.0814 40.7751 87.3385 40.8298 86.6094 40.8389V47.21H80.2383C80.2383 45.1227 80.2428 43.0446 80.252 40.9756C80.2611 38.9066 80.2747 36.8193 80.293 34.7139C80.3112 33.6019 80.3158 32.4899 80.3066 31.3779C80.2975 30.266 80.3203 29.1449 80.375 28.0146C81.5417 27.6683 82.7083 27.4085 83.875 27.2354C85.0417 27.0622 86.2448 26.9756 87.4844 26.9756C88.1862 26.9756 88.888 27.0348 89.5898 27.1533C90.2917 27.2627 90.9616 27.4404 91.5996 27.6865C92.2467 27.9326 92.8438 28.2425 93.3906 28.6162C93.9466 28.9808 94.4251 29.4183 94.8262 29.9287C95.2272 30.4391 95.5417 31.0225 95.7695 31.6787C96.0065 32.3258 96.125 33.055 96.125 33.8662ZM90.0547 34.3311C90.0547 33.7386 89.8724 33.2783 89.5078 32.9502C89.1523 32.613 88.6875 32.4443 88.1133 32.4443C87.9219 32.4443 87.7214 32.4626 87.5117 32.499C87.3112 32.5264 87.1198 32.5628 86.9375 32.6084L86.7734 36.6006C86.901 36.6188 87.0241 36.6279 87.1426 36.6279C87.2611 36.6279 87.3841 36.6279 87.5117 36.6279C87.8398 36.6279 88.1543 36.5732 88.4551 36.4639C88.765 36.3545 89.0384 36.1995 89.2754 35.999C89.5124 35.7894 89.6992 35.5479 89.8359 35.2744C89.9818 34.9919 90.0547 34.6774 90.0547 34.3311ZM108.867 39.7725L108.293 45.8428L96.7812 46.7451L97.2188 27.2217H104.328L103.316 39.7725H108.867ZM126.75 45.8428L119.969 46.7178L119.148 43.6279H116.031L115.348 46.7178L108.375 46.0342L113.816 27.8232L121.418 27.4404L126.75 45.8428ZM118.656 39.4443L117.617 34.6865L116.605 39.4443H118.656ZM142.227 28.5068L135.801 39.0068L135.992 46.7451H128.965L129.129 39.0615L124.125 28.917L131.098 28.042L133.285 33.9482L135.664 28.042L142.227 28.5068ZM164.758 40.1006C164.758 41.1305 164.744 42.1514 164.717 43.1631C164.699 44.1657 164.667 45.1774 164.621 46.1982L156.746 46.0615C157.02 44.4482 157.257 42.8395 157.457 41.2354C157.658 39.6221 157.758 37.9951 157.758 36.3545C157.758 36.236 157.753 36.0446 157.744 35.7803C157.735 35.516 157.717 35.2197 157.689 34.8916C157.662 34.5544 157.621 34.2126 157.566 33.8662C157.521 33.5107 157.452 33.1872 157.361 32.8955C157.279 32.6038 157.174 32.3669 157.047 32.1846C156.928 31.9932 156.783 31.8975 156.609 31.8975C156.299 31.8975 156.035 31.9886 155.816 32.1709C155.607 32.3532 155.429 32.5902 155.283 32.8818C155.146 33.1644 155.037 33.4834 154.955 33.8389C154.873 34.1943 154.809 34.5498 154.764 34.9053C154.727 35.2607 154.7 35.598 154.682 35.917C154.673 36.2269 154.668 36.4821 154.668 36.6826C154.622 38.2959 154.586 39.9001 154.559 41.4951C154.531 43.0811 154.495 44.6852 154.449 46.3076L147.477 46.6084C147.659 43.391 147.832 40.1917 147.996 37.0107C148.169 33.8298 148.306 30.6305 148.406 27.4131L154.859 27.085L154.805 29.2725C155.06 28.9626 155.333 28.6709 155.625 28.3975C155.926 28.124 156.245 27.8916 156.582 27.7002C156.919 27.4997 157.275 27.3447 157.648 27.2354C158.031 27.1169 158.432 27.0576 158.852 27.0576C159.626 27.0576 160.305 27.1852 160.889 27.4404C161.472 27.6956 161.973 28.042 162.393 28.4795C162.812 28.917 163.163 29.4365 163.445 30.0381C163.728 30.6305 163.956 31.264 164.129 31.9385C164.302 32.613 164.434 33.3193 164.525 34.0576C164.617 34.7868 164.676 35.5068 164.703 36.2178C164.74 36.9287 164.758 37.6169 164.758 38.2822C164.758 38.9476 164.758 39.5537 164.758 40.1006ZM182.955 36.5459C182.955 37.3753 182.859 38.1774 182.668 38.9521C182.477 39.7178 182.199 40.4378 181.834 41.1123C181.479 41.7868 181.041 42.4066 180.521 42.9717C180.011 43.5277 179.432 44.0062 178.785 44.4072C178.147 44.8083 177.45 45.1227 176.693 45.3506C175.937 45.5693 175.135 45.6787 174.287 45.6787C173.467 45.6787 172.683 45.5739 171.936 45.3643C171.197 45.1546 170.505 44.863 169.857 44.4893C169.21 44.1064 168.622 43.6507 168.094 43.1221C167.574 42.5843 167.128 41.9919 166.754 41.3447C166.389 40.6885 166.102 39.9867 165.893 39.2393C165.692 38.4919 165.592 37.7126 165.592 36.9014C165.592 36.1084 165.688 35.3337 165.879 34.5771C166.07 33.8115 166.344 33.0915 166.699 32.417C167.064 31.7425 167.501 31.1227 168.012 30.5576C168.522 29.9925 169.092 29.5049 169.721 29.0947C170.359 28.6846 171.047 28.3656 171.785 28.1377C172.523 27.9098 173.303 27.7959 174.123 27.7959C175.445 27.7959 176.648 28.001 177.732 28.4111C178.826 28.8213 179.756 29.4092 180.521 30.1748C181.296 30.9313 181.893 31.8519 182.312 32.9365C182.741 34.012 182.955 35.2152 182.955 36.5459ZM176.885 36.9014C176.885 36.5094 176.826 36.1312 176.707 35.7666C176.598 35.3929 176.434 35.0648 176.215 34.7822C175.996 34.4906 175.723 34.2581 175.395 34.085C175.076 33.9027 174.706 33.8115 174.287 33.8115C173.859 33.8115 173.476 33.889 173.139 34.0439C172.801 34.1989 172.51 34.4131 172.264 34.6865C172.027 34.9508 171.844 35.2653 171.717 35.6299C171.589 35.9854 171.525 36.3636 171.525 36.7646C171.525 37.1475 171.58 37.5303 171.689 37.9131C171.799 38.2959 171.963 38.6423 172.182 38.9521C172.4 39.262 172.669 39.5127 172.988 39.7041C173.316 39.8955 173.695 39.9912 174.123 39.9912C174.551 39.9912 174.934 39.9092 175.271 39.7451C175.618 39.5719 175.91 39.3441 176.146 39.0615C176.383 38.7699 176.566 38.4372 176.693 38.0635C176.821 37.6898 176.885 37.3024 176.885 36.9014ZM208.221 28.042L205.021 46.4443L197.256 46.6084L195.588 37.3389L193.92 45.8975L186.154 46.1709L182.928 28.5889L189.709 27.9873L191.076 38.7881L192.908 28.8076H198.24L200.373 38.9248L201.467 27.4404L208.221 28.042Z" fill="white"/>
</svg>
