<svg width="335" height="75" viewBox="0 0 241 75" fill="none" xmlns="http://www.w3.org/2000/svg">
                <path d="M240.999 0.125488V74.9101L233.641 66.8334V8.31191L240.999 0.125488Z" fill="#BC1B1B" />
                <path d="M241 74.9103L0 71.4901L7.35878 63.6128L233.641 66.8335L241 74.9103Z" fill="#DA291C" />
                <path d="M241 0.125488L233.641 8.31191L7.35878 14.7434L0 6.97577L241 0.125488Z" fill="#DA291C" />
                <path d="M7.35878 14.7437V63.613L0 71.4903V6.97607L7.35878 14.7437Z" fill="#BC1B1B" />
                <path d="M233.642 8.10254V67.624L7.35938 64.4033V14.534L233.642 8.10254Z" fill="#F83628" />
                <path d="M60.1853 26.6759L34.8362 36.4509C33.1063 37.1458 33.1163 38.1108 34.5188 38.5412L41.0269 40.5714L56.0848 31.0708C56.7968 30.6376 57.4473 30.8707 56.9126 31.3454L44.7128 42.3557H44.7099L44.7128 42.3571L44.2638 49.0654C44.9215 49.0654 45.2117 48.7637 45.5806 48.4077L48.7417 45.3338L55.317 50.1906C56.5295 50.8583 57.4002 50.5151 57.7018 49.0682L62.0182 28.7261C62.46 26.9547 61.3419 26.1526 60.1853 26.6759Z" fill="white" />
                <path d="M96.125 33.8657C96.125 34.7498 95.9928 35.5337 95.7285 36.2173C95.4642 36.9009 95.0996 37.4979 94.6348 38.0083C94.179 38.5187 93.6413 38.9517 93.0215 39.3071C92.4017 39.6626 91.7363 39.9543 91.0254 40.1821C90.3236 40.4009 89.5944 40.5649 88.8379 40.6743C88.0814 40.7746 87.3385 40.8293 86.6094 40.8384V47.2095H80.2383C80.2383 45.1222 80.2428 43.0441 80.252 40.9751C80.2611 38.9061 80.2747 36.8188 80.293 34.7134C80.3112 33.6014 80.3158 32.4894 80.3066 31.3774C80.2975 30.2655 80.3203 29.1444 80.375 28.0142C81.5417 27.6678 82.7083 27.408 83.875 27.2349C85.0417 27.0617 86.2448 26.9751 87.4844 26.9751C88.1862 26.9751 88.888 27.0343 89.5898 27.1528C90.2917 27.2622 90.9616 27.4399 91.5996 27.686C92.2467 27.9321 92.8438 28.242 93.3906 28.6157C93.9466 28.9803 94.4251 29.4178 94.8262 29.9282C95.2272 30.4386 95.5417 31.022 95.7695 31.6782C96.0065 32.3254 96.125 33.0545 96.125 33.8657ZM90.0547 34.3306C90.0547 33.7381 89.8724 33.2778 89.5078 32.9497C89.1523 32.6125 88.6875 32.4438 88.1133 32.4438C87.9219 32.4438 87.7214 32.4621 87.5117 32.4985C87.3112 32.5259 87.1198 32.5623 86.9375 32.6079L86.7734 36.6001C86.901 36.6183 87.0241 36.6274 87.1426 36.6274C87.2611 36.6274 87.3841 36.6274 87.5117 36.6274C87.8398 36.6274 88.1543 36.5728 88.4551 36.4634C88.765 36.354 89.0384 36.1991 89.2754 35.9985C89.5124 35.7889 89.6992 35.5474 89.8359 35.2739C89.9818 34.9914 90.0547 34.6769 90.0547 34.3306ZM108.867 39.772L108.293 45.8423L96.7812 46.7446L97.2188 27.2212H104.328L103.316 39.772H108.867ZM126.75 45.8423L119.969 46.7173L119.148 43.6274H116.031L115.348 46.7173L108.375 46.0337L113.816 27.8228L121.418 27.4399L126.75 45.8423ZM118.656 39.4438L117.617 34.686L116.605 39.4438H118.656ZM142.227 28.5063L135.801 39.0063L135.992 46.7446H128.965L129.129 39.061L124.125 28.9165L131.098 28.0415L133.285 33.9478L135.664 28.0415L142.227 28.5063ZM164.758 40.1001C164.758 41.13 164.744 42.1509 164.717 43.1626C164.699 44.1652 164.667 45.1769 164.621 46.1978L156.746 46.061C157.02 44.4478 157.257 42.839 157.457 41.2349C157.658 39.6216 157.758 37.9946 157.758 36.354C157.758 36.2355 157.753 36.0441 157.744 35.7798C157.735 35.5155 157.717 35.2192 157.689 34.8911C157.662 34.5539 157.621 34.2121 157.566 33.8657C157.521 33.5103 157.452 33.1867 157.361 32.895C157.279 32.6034 157.174 32.3664 157.047 32.1841C156.928 31.9927 156.783 31.897 156.609 31.897C156.299 31.897 156.035 31.9881 155.816 32.1704C155.607 32.3527 155.429 32.5897 155.283 32.8813C155.146 33.1639 155.037 33.4829 154.955 33.8384C154.873 34.1938 154.809 34.5493 154.764 34.9048C154.727 35.2603 154.7 35.5975 154.682 35.9165C154.673 36.2264 154.668 36.4816 154.668 36.6821C154.622 38.2954 154.586 39.8996 154.559 41.4946C154.531 43.0806 154.495 44.6847 154.449 46.3071L147.477 46.6079C147.659 43.3905 147.832 40.1912 147.996 37.0103C148.169 33.8293 148.306 30.63 148.406 27.4126L154.859 27.0845L154.805 29.272C155.06 28.9621 155.333 28.6704 155.625 28.397C155.926 28.1235 156.245 27.8911 156.582 27.6997C156.919 27.4992 157.275 27.3442 157.648 27.2349C158.031 27.1164 158.432 27.0571 158.852 27.0571C159.626 27.0571 160.305 27.1847 160.889 27.4399C161.472 27.6951 161.973 28.0415 162.393 28.479C162.812 28.9165 163.163 29.436 163.445 30.0376C163.728 30.63 163.956 31.2635 164.129 31.938C164.302 32.6125 164.434 33.3188 164.525 34.0571C164.617 34.7863 164.676 35.5063 164.703 36.2173C164.74 36.9282 164.758 37.6164 164.758 38.2817C164.758 38.9471 164.758 39.5532 164.758 40.1001ZM182.955 36.5454C182.955 37.3748 182.859 38.1769 182.668 38.9517C182.477 39.7173 182.199 40.4373 181.834 41.1118C181.479 41.7863 181.041 42.4061 180.521 42.9712C180.011 43.5272 179.432 44.0057 178.785 44.4067C178.147 44.8078 177.45 45.1222 176.693 45.3501C175.937 45.5688 175.135 45.6782 174.287 45.6782C173.467 45.6782 172.683 45.5734 171.936 45.3638C171.197 45.1541 170.505 44.8625 169.857 44.4888C169.21 44.106 168.622 43.6502 168.094 43.1216C167.574 42.5838 167.128 41.9914 166.754 41.3442C166.389 40.688 166.102 39.9862 165.893 39.2388C165.692 38.4914 165.592 37.7121 165.592 36.9009C165.592 36.1079 165.688 35.3332 165.879 34.5767C166.07 33.811 166.344 33.091 166.699 32.4165C167.064 31.742 167.501 31.1222 168.012 30.5571C168.522 29.992 169.092 29.5044 169.721 29.0942C170.359 28.6841 171.047 28.3651 171.785 28.1372C172.523 27.9093 173.303 27.7954 174.123 27.7954C175.445 27.7954 176.648 28.0005 177.732 28.4106C178.826 28.8208 179.756 29.4087 180.521 30.1743C181.296 30.9308 181.893 31.8514 182.312 32.936C182.741 34.0116 182.955 35.2147 182.955 36.5454ZM176.885 36.9009C176.885 36.509 176.826 36.1307 176.707 35.7661C176.598 35.3924 176.434 35.0643 176.215 34.7817C175.996 34.4901 175.723 34.2576 175.395 34.0845C175.076 33.9022 174.706 33.811 174.287 33.811C173.859 33.811 173.476 33.8885 173.139 34.0435C172.801 34.1984 172.51 34.4126 172.264 34.686C172.027 34.9504 171.844 35.2648 171.717 35.6294C171.589 35.9849 171.525 36.3631 171.525 36.7642C171.525 37.147 171.58 37.5298 171.689 37.9126C171.799 38.2954 171.963 38.6418 172.182 38.9517C172.4 39.2616 172.669 39.5122 172.988 39.7036C173.316 39.895 173.695 39.9907 174.123 39.9907C174.551 39.9907 174.934 39.9087 175.271 39.7446C175.618 39.5715 175.91 39.3436 176.146 39.061C176.383 38.7694 176.566 38.4367 176.693 38.063C176.821 37.6893 176.885 37.3019 176.885 36.9009ZM208.221 28.0415L205.021 46.4438L197.256 46.6079L195.588 37.3384L193.92 45.897L186.154 46.1704L182.928 28.5884L189.709 27.9868L191.076 38.7876L192.908 28.8071H198.24L200.373 38.9243L201.467 27.4399L208.221 28.0415Z" fill="white" />
            </svg>