  <svg width="16" height="16" viewBox="0 0 16 16" fill="none" xmlns="http://www.w3.org/2000/svg">
                <path d="M10.16 1.33337H7.564C6.388 1.33337 5.456 1.33337 4.72733 1.43204C3.97667 1.53337 3.36933 1.74671 2.89067 2.22737C2.41133 2.70804 2.19867 3.31804 2.098 4.07137C2 4.80337 2 5.73871 2 6.91937V10.8114C2 11.8167 2.61333 12.678 3.48467 13.0394C3.44 12.4327 3.44 11.5827 3.44 10.8747V7.53471C3.44 6.68071 3.44 5.94404 3.51867 5.35471C3.60333 4.72271 3.794 4.11737 4.28333 3.62604C4.77267 3.13471 5.376 2.94337 6.00533 2.85804C6.592 2.77937 7.32533 2.77937 8.17667 2.77937H10.2233C11.074 2.77937 11.806 2.77937 12.3933 2.85804C12.2174 2.4089 11.9102 2.0232 11.5118 1.75123C11.1135 1.47926 10.6424 1.33364 10.16 1.33337Z" fill="white" />
                <path d="M4.40015 7.59801C4.40015 5.78068 4.40015 4.87201 4.96281 4.30734C5.52481 3.74268 6.42948 3.74268 8.24015 3.74268H10.1601C11.9701 3.74268 12.8755 3.74268 13.4381 4.30734C14.0008 4.87201 14.0001 5.78068 14.0001 7.59801V10.8113C14.0001 12.6287 14.0001 13.5373 13.4381 14.102C12.8755 14.6667 11.9701 14.6667 10.1601 14.6667H8.24015C6.43015 14.6667 5.52481 14.6667 4.96281 14.102C4.40015 13.5373 4.40015 12.6287 4.40015 10.8113V7.59801Z" fill="white" />
            </svg>