<svg width="32" height="32" viewBox="0 0 32 32" fill="none" xmlns="http://www.w3.org/2000/svg">
<rect width="32" height="32" fill="black"/>
<path d="M18.16 9.33337H15.564C14.388 9.33337 13.456 9.33337 12.7273 9.43204C11.9767 9.53337 11.3693 9.74671 10.8907 10.2274C10.4113 10.708 10.1987 11.318 10.098 12.0714C10 12.8034 10 13.7387 10 14.9194V18.8114C10 19.8167 10.6133 20.678 11.4847 21.0394C11.44 20.4327 11.44 19.5827 11.44 18.8747V15.5347C11.44 14.6807 11.44 13.944 11.5187 13.3547C11.6033 12.7227 11.794 12.1174 12.2833 11.626C12.7727 11.1347 13.376 10.9434 14.0053 10.858C14.592 10.7794 15.3253 10.7794 16.1767 10.7794H18.2233C19.074 10.7794 19.806 10.7794 20.3933 10.858C20.2174 10.4089 19.9102 10.0232 19.5118 9.75123C19.1135 9.47926 18.6424 9.33364 18.16 9.33337Z" fill="white"/>
<path d="M12.4001 15.598C12.4001 13.7807 12.4001 12.872 12.9628 12.3073C13.5248 11.7427 14.4295 11.7427 16.2401 11.7427H18.1601C19.9701 11.7427 20.8755 11.7427 21.4381 12.3073C22.0008 12.872 22.0001 13.7807 22.0001 15.598V18.8113C22.0001 20.6287 22.0001 21.5373 21.4381 22.102C20.8755 22.6667 19.9701 22.6667 18.1601 22.6667H16.2401C14.4301 22.6667 13.5248 22.6667 12.9628 22.102C12.4001 21.5373 12.4001 20.6287 12.4001 18.8113V15.598Z" fill="white"/>
</svg>
