<svg width="77" height="67" viewBox="0 0 77 67" fill="none" xmlns="http://www.w3.org/2000/svg">
<g clip-path="url(#clip0_371_2609)">
<path d="M77 16L75 30V56L70 62L57 65C56.6414 64.6158 56.5169 64.0993 56 64C55.5154 63.9324 54.756 65.2559 54 66L37 64L26 62L1 67L0 45L5 5L11 7H25L37 5L42 7L48 4L63 0L68 4H76L77 5V16Z" fill="white"/>
<path d="M26 31.9999L32 33.9999L47 24.9999C47.2217 24.8666 48.1912 25.8269 48 25.9999L36 35.9999V41.9999C35.6756 42.3136 35.9673 42.4462 36 41.9999L40 38.9999L47 43.9999C47.7024 44.5228 47.8106 43.8459 48 42.9999L53 22.9999C53.2588 21.8442 52.1238 20.5767 51 20.9999L26 30.9999C25.2044 31.2995 25.1933 31.7305 26 31.9999Z" fill="black"/>
</g>
<defs>
<clipPath id="clip0_371_2609">
<rect width="77" height="67" fill="white"/>
</clipPath>
</defs>
</svg>
