<svg width="100" height="88" viewBox="0 0 100 88" fill="none" xmlns="http://www.w3.org/2000/svg">
<path d="M2.00512 59.1456L7.70429 9.70387L13.3245 10.8408L13.51 10.8783L13.6993 10.8803L32.1535 11.0811L32.3402 11.0832L32.5241 11.0506L48.2023 8.27342L53.2788 11.0165L54.0691 11.4435L54.9132 11.1365L63.3892 8.05373L81.2131 2.54564L87.6619 7.69517L88.2368 8.15428L88.9722 8.13134L97.9393 7.85163L97.4512 20.5677L94.9461 39.2968L94.9282 39.4307L94.9285 39.5658L94.9902 72.0244L90.2722 78.6068L74.5779 82.7335C74.0193 82.3738 73.3938 82.1219 72.7337 81.9951L72.6835 81.9855L72.6329 81.9784C71.6568 81.8422 70.81 82.2162 70.241 82.5565C69.8953 82.7633 69.5564 83.0156 69.2278 83.2939L48.349 81.096L34.1772 79.0189L33.8406 78.9695L33.5066 79.0343L3.15364 84.9178L2.00512 59.1456Z" fill="white" stroke="black" stroke-width="4"/>
<path d="M65.3194 32.4343L36.0192 43.7313C34.0196 44.5344 34.0311 45.6497 35.6523 46.147L43.1749 48.4934L60.5798 37.5136C61.4028 37.0129 62.1547 37.2823 61.5367 37.8309L47.4352 50.5555H47.4319L47.4352 50.5571L46.9163 58.3099C47.6765 58.3099 48.012 57.9612 48.4383 57.5498L52.0922 53.9973L59.6924 59.6103C61.0938 60.3819 62.1002 59.9853 62.4489 58.3132L67.438 34.8038C67.9487 32.7565 66.6564 31.8296 65.3194 32.4343Z" fill="black"/>
</svg>
