<svg width="77" height="67" viewBox="0 0 77 67" fill="none" xmlns="http://www.w3.org/2000/svg">
<g clip-path="url(#clip0_371_2605)">
<path d="M77 16L75 30V56L70 62L57 65C56.6414 64.6158 56.5169 64.0993 56 64C55.5154 63.9324 54.756 65.2559 54 66L37 64L26 62L1 67L0 45L5 5L11 7H25L37 5L42 7L48 4L63 0L68 4H76L77 5V16Z" fill="white"/>
<path d="M46 21H50L42 31L52 45H44L38 37L31 45H27L36 34L26 21H34L40 29L46 21ZM45 43H47L33 23H31L45 43Z" fill="black"/>
</g>
<defs>
<clipPath id="clip0_371_2605">
<rect width="77" height="67" fill="white"/>
</clipPath>
</defs>
</svg>
