<svg width="100" height="88" viewBox="0 0 100 88" fill="none" xmlns="http://www.w3.org/2000/svg">
<path d="M2.00512 59.1456L7.70429 9.70387L13.3245 10.8408L13.51 10.8783L13.6993 10.8803L32.1535 11.0811L32.3402 11.0832L32.5241 11.0506L48.2023 8.27342L53.2788 11.0165L54.0691 11.4435L54.9132 11.1365L63.3892 8.05373L81.2131 2.54564L87.6619 7.69517L88.2368 8.15428L88.9722 8.13134L97.9393 7.85163L97.4512 20.5677L94.9461 39.2968L94.9282 39.4307L94.9285 39.5658L94.9902 72.0244L90.2722 78.6068L74.5779 82.7335C74.0193 82.3738 73.3938 82.1219 72.7337 81.9951L72.6835 81.9855L72.6329 81.9784C71.6568 81.8422 70.81 82.2162 70.241 82.5565C69.8953 82.7633 69.5564 83.0156 69.2278 83.2939L48.349 81.096L34.1772 79.0189L33.8406 78.9695L33.5066 79.0343L3.15364 84.9178L2.00512 59.1456Z" fill="white" stroke="black" stroke-width="4"/>
<g clip-path="url(#clip0_371_2877)">
<mask id="mask0_371_2877" style="mask-type:luminance" maskUnits="userSpaceOnUse" x="35" y="26" width="34" height="34">
<path d="M35.0649 26.2959H68.1165V59.3475H35.0649V26.2959Z" fill="white"/>
</mask>
<g mask="url(#mask0_371_2877)">
<path d="M61.0931 31.7412H66.1618L55.0895 44.4283L68.1165 61.6954H57.9178L49.924 51.2251L40.7876 61.6954H35.7142L47.5561 48.1206L35.0649 31.7436H45.5234L52.7381 41.312L61.0931 31.7412ZM59.3107 58.6547H62.12L43.9889 34.6238H40.9765L59.3107 58.6547Z" fill="black"/>
</g>
</g>
<defs>
<clipPath id="clip0_371_2877">
<rect width="33.0516" height="33.0516" fill="white" transform="translate(35.0649 26.2959)"/>
</clipPath>
</defs>
</svg>
